{"glyphs":{"0":{"ha":796,"x_min":64,"x_max":733,"o":"m 400 904 q 660 757 564 904 q 733 439 733 642 q 642 106 733 229 q 396 -19 550 -19 q 153 100 240 -19 q 64 426 64 218 q 146 761 64 639 q 400 904 239 904 m 404 879 q 175 757 260 879 q 90 425 90 635 q 171 117 90 228 q 396 6 253 6 q 646 161 558 6 q 707 439 707 267 q 644 729 707 618 q 404 879 557 879 z "},"1":{"ha":796,"x_min":190,"x_max":457,"o":"m 457 0 l 431 0 l 431 857 q 190 693 333 732 l 190 719 q 311 776 257 738 q 375 829 353 807 l 428 885 l 457 885 l 457 0 z "},"2":{"ha":796,"x_min":108,"x_max":706,"o":"m 706 0 l 108 0 q 194 181 121 107 q 293 261 214 200 l 336 293 l 417 349 q 656 667 656 517 q 408 879 656 879 q 193 774 260 879 q 151 593 153 711 l 125 593 q 193 817 131 744 q 414 904 269 904 q 608 840 535 904 q 682 671 682 776 q 589 458 682 556 q 456 346 542 408 l 351 271 q 182 126 221 179 q 139 25 146 76 l 706 25 l 706 0 z "},"3":{"ha":796,"x_min":89,"x_max":708,"o":"m 114 608 q 169 796 119 732 q 415 904 250 904 q 617 842 539 904 q 693 679 693 781 q 490 474 693 500 q 618 431 574 461 q 708 243 708 368 q 624 54 708 128 q 406 -19 538 -19 q 175 58 260 -19 q 89 269 89 136 l 89 281 q 90 300 89 292 l 115 300 q 114 286 114 294 l 114 278 q 188 81 114 150 q 403 6 267 6 q 604 72 526 6 q 682 243 682 138 q 594 418 682 363 q 375 464 524 464 l 365 464 l 365 488 l 396 488 q 568 518 513 488 q 667 678 667 568 q 415 879 667 879 q 138 608 144 879 l 114 608 z "},"4":{"ha":796,"x_min":78,"x_max":710,"o":"m 710 231 l 550 231 l 550 0 l 524 0 l 524 231 l 78 231 l 78 261 l 515 885 l 550 885 l 550 256 l 710 256 l 710 231 m 524 861 q 481 794 508 835 l 103 256 l 524 256 l 524 861 z "},"5":{"ha":796,"x_min":92,"x_max":704,"o":"m 668 860 l 233 860 l 150 472 q 400 597 246 597 q 617 510 528 597 q 704 292 704 421 q 617 68 704 156 q 396 -19 531 -19 q 125 128 201 -19 q 92 282 93 189 l 115 282 q 146 143 121 189 q 399 6 214 6 q 600 86 522 6 q 678 293 678 165 q 597 492 678 411 q 400 572 518 572 q 150 436 233 572 l 119 436 l 214 885 l 668 885 l 668 860 z "},"6":{"ha":796,"x_min":94,"x_max":714,"o":"m 672 669 q 419 879 633 879 q 117 363 117 879 q 194 501 146 454 q 407 589 285 589 q 625 501 538 589 q 714 283 714 413 q 626 69 714 157 q 411 -19 538 -19 q 158 107 244 -19 q 94 401 94 201 q 419 904 94 904 q 654 785 572 904 q 699 669 686 739 l 672 669 m 413 564 q 210 483 292 564 q 128 286 128 404 q 210 86 128 167 q 411 6 290 6 q 607 88 526 6 q 688 286 688 168 q 607 482 688 401 q 413 564 526 564 z "},"7":{"ha":796,"x_min":139,"x_max":706,"o":"m 706 853 q 415 447 517 665 q 310 0 321 240 l 282 0 q 397 471 288 236 q 686 860 508 706 l 139 860 l 139 885 l 706 885 l 706 853 z "},"8":{"ha":796,"x_min":81,"x_max":717,"o":"m 306 481 q 119 685 119 517 q 404 904 119 904 q 681 685 681 904 q 494 482 681 515 q 717 243 717 447 q 622 43 717 115 q 397 -19 542 -19 q 81 250 81 -19 q 306 481 81 450 m 396 881 q 146 685 146 881 q 401 492 146 492 q 654 685 654 492 q 396 881 654 881 m 401 469 q 107 249 107 469 q 397 4 107 4 q 690 243 690 4 q 401 469 690 469 z "},"9":{"ha":796,"x_min":82,"x_max":706,"o":"m 133 208 q 386 6 175 6 q 657 229 592 6 q 682 500 682 321 l 682 515 q 683 538 682 526 q 622 406 663 458 q 385 297 538 297 q 169 385 256 297 q 82 604 82 474 q 171 817 82 731 q 388 904 260 904 q 635 779 547 904 q 706 474 706 681 q 658 163 706 269 q 386 -19 578 -19 q 201 43 278 -19 q 108 208 124 107 l 133 208 m 388 879 q 190 799 271 879 q 108 603 108 718 q 189 403 108 483 q 388 322 268 322 q 589 403 507 322 q 669 603 669 483 q 588 797 669 717 q 388 879 504 879 z "}," ":{"ha":347,"x_min":0,"x_max":0,"o":""},"!":{"ha":314,"x_min":157,"x_max":183,"o":"m 183 236 l 157 236 l 157 926 l 183 926 l 183 236 m 183 0 l 157 0 l 157 128 l 183 128 l 183 0 z "},"\"":{"ha":347,"x_min":90,"x_max":257,"o":"m 94 553 l 90 926 l 118 926 l 114 553 l 94 553 m 233 553 l 229 926 l 257 926 l 253 553 l 233 553 z "},"#":{"ha":796,"x_min":74,"x_max":722,"o":"m 457 39 l 431 39 l 472 340 l 292 340 l 249 39 l 222 39 l 264 340 l 74 340 l 76 365 l 268 365 l 293 540 l 101 540 l 106 567 l 296 567 l 336 846 l 363 846 l 322 567 l 504 567 l 544 846 l 571 846 l 531 567 l 722 567 l 718 540 l 528 540 l 503 365 l 694 365 l 690 340 l 500 340 l 457 39 m 319 540 l 294 365 l 476 365 l 501 540 l 319 540 z "},"$":{"ha":796,"x_min":63,"x_max":713,"o":"m 400 903 q 693 644 681 889 l 667 644 q 400 879 653 867 l 400 465 q 540 428 504 439 q 603 404 578 417 q 713 218 713 351 q 400 -19 713 -17 l 400 -139 l 374 -139 l 374 -18 q 174 43 246 -7 q 63 271 63 121 l 63 276 q 64 286 63 282 l 89 286 q 374 6 89 32 l 374 446 q 193 506 242 479 q 89 690 89 563 q 374 904 89 901 l 374 1010 l 400 1010 l 400 903 m 400 6 q 686 214 686 6 q 572 392 686 344 q 469 422 547 401 l 400 440 l 400 6 m 374 879 q 115 689 115 876 q 217 522 115 569 q 315 488 263 501 l 374 472 l 374 879 z "},"%":{"ha":996,"x_min":63,"x_max":932,"o":"m 204 -37 l 175 -37 l 782 939 l 813 939 l 204 -37 m 733 425 q 932 208 932 425 q 731 -14 932 -14 q 533 211 533 -14 q 733 425 533 425 m 735 400 q 558 203 558 400 q 731 8 558 8 q 908 210 908 8 q 735 400 908 400 m 264 917 q 461 694 461 917 q 406 538 461 596 q 257 478 350 478 q 63 701 63 478 q 264 917 63 917 m 263 892 q 86 696 86 892 q 257 503 86 503 q 436 696 436 503 q 263 892 436 892 z "},"&":{"ha":779,"x_min":65,"x_max":751,"o":"m 653 357 q 611 174 653 268 l 751 0 l 719 0 l 601 149 q 336 -18 493 -18 q 140 46 217 -18 q 65 213 65 110 q 188 419 65 328 q 290 489 218 443 q 317 507 315 507 l 235 611 q 179 744 179 683 q 232 867 179 818 q 367 914 285 914 q 492 874 442 914 q 554 751 554 825 q 475 593 554 664 q 383 522 451 571 l 351 500 l 596 194 l 601 210 q 629 357 625 276 l 653 357 m 338 519 q 529 746 529 628 q 368 890 529 890 q 250 849 296 890 q 203 743 203 807 q 225 665 203 704 q 271 603 235 649 l 328 531 q 338 519 338 518 m 331 488 q 201 399 260 444 q 90 215 90 314 q 158 63 90 121 q 333 3 226 3 q 585 169 503 3 l 331 488 z "},"’":{"ha":249,"x_min":82,"x_max":138,"o":"m 138 815 q 119 690 138 732 q 82 640 107 660 l 82 681 q 111 799 111 722 l 111 926 l 138 926 l 138 815 z "},"(":{"ha":336,"x_min":65,"x_max":244,"o":"m 244 926 q 92 350 92 665 q 244 -232 92 49 l 217 -232 q 65 356 65 50 q 217 926 65 650 l 244 926 z "},")":{"ha":336,"x_min":93,"x_max":272,"o":"m 93 -232 q 246 344 246 29 q 93 926 246 646 l 121 926 q 272 339 272 644 q 121 -232 272 44 l 93 -232 z "},"*":{"ha":796,"x_min":210,"x_max":588,"o":"m 415 725 l 524 581 l 504 565 l 399 708 l 286 569 l 268 585 l 381 725 l 210 781 l 218 803 l 386 747 l 386 926 l 410 926 l 410 747 l 581 803 l 588 781 l 415 725 z "},"+":{"ha":796,"x_min":88,"x_max":708,"o":"m 383 454 l 383 754 l 410 754 l 410 454 l 708 454 l 708 428 l 410 428 l 410 131 l 383 131 l 383 428 l 88 428 l 88 454 l 383 454 z "},",":{"ha":249,"x_min":82,"x_max":138,"o":"m 138 10 q 82 -153 138 -121 l 82 -118 q 111 3 111 -86 l 111 128 l 138 128 l 138 10 z "},"-":{"ha":288,"x_min":0,"x_max":288,"o":"m 288 328 l 0 328 l 0 353 l 288 353 l 288 328 z "},".":{"ha":249,"x_min":111,"x_max":138,"o":"m 138 0 l 111 0 l 111 128 l 138 128 l 138 0 z "},"/":{"ha":564,"x_min":-51,"x_max":508,"o":"m -24 -232 l -51 -232 l 481 926 l 508 926 l -24 -232 z "},":":{"ha":272,"x_min":135,"x_max":161,"o":"m 161 0 l 135 0 l 135 128 l 161 128 l 161 0 m 161 508 l 135 508 l 135 636 l 161 636 l 161 508 z "},";":{"ha":272,"x_min":106,"x_max":161,"o":"m 161 10 q 106 -153 161 -121 l 106 -118 q 135 3 135 -86 l 135 128 l 161 128 l 161 10 m 161 508 l 135 508 l 135 636 l 161 636 l 161 508 z "},"<":{"ha":694,"x_min":46,"x_max":647,"o":"m 647 707 l 78 463 l 647 218 l 647 190 l 46 449 l 46 478 l 647 736 l 647 707 z "},"=":{"ha":796,"x_min":88,"x_max":708,"o":"m 708 547 l 708 521 l 88 521 l 88 547 l 708 547 m 708 364 l 708 338 l 88 338 l 88 364 l 708 364 z "},">":{"ha":694,"x_min":47,"x_max":649,"o":"m 47 218 l 617 463 l 47 707 l 47 736 l 649 478 l 649 449 l 47 190 l 47 218 z "},"?":{"ha":682,"x_min":79,"x_max":618,"o":"m 79 640 q 122 825 79 753 q 357 947 194 947 q 544 883 471 947 q 618 722 618 819 q 557 564 618 639 l 457 464 q 378 371 392 403 q 364 236 365 338 l 336 236 q 344 347 336 315 q 394 440 354 399 q 449 492 407 454 q 592 721 592 619 q 525 865 592 808 q 358 922 460 922 q 135 793 200 922 q 106 640 107 739 l 79 640 m 363 0 l 336 0 l 336 126 l 363 126 l 363 0 z "},"@":{"ha":1038,"x_min":83,"x_max":954,"o":"m 931 229 q 818 86 893 143 q 536 -10 693 -10 q 214 122 346 -10 q 83 444 83 254 q 218 775 83 639 q 544 911 353 911 q 838 803 719 911 q 954 536 954 696 q 839 276 954 375 q 671 201 753 201 q 586 249 607 201 q 579 290 579 261 q 428 204 511 204 q 297 361 297 204 q 351 557 297 461 q 554 699 432 699 q 678 597 644 699 l 707 678 l 732 678 l 618 353 q 604 290 604 317 q 674 228 604 228 q 824 296 749 228 q 928 535 928 390 q 819 786 928 688 q 543 886 710 886 q 238 757 363 886 q 111 444 111 629 q 233 139 111 264 q 535 15 357 15 q 904 229 792 15 l 931 229 m 639 482 q 657 561 657 532 q 553 676 657 676 q 396 579 468 676 q 324 365 324 481 q 424 229 324 229 q 540 279 488 229 q 606 394 575 311 l 639 482 z "},"A":{"ha":814,"x_min":18,"x_max":794,"o":"m 794 0 l 765 0 l 643 306 l 172 306 l 47 0 l 18 0 l 399 926 l 424 926 l 794 0 m 417 879 l 411 897 l 182 331 l 633 331 l 417 879 z "},"B":{"ha":868,"x_min":115,"x_max":803,"o":"m 485 926 q 678 881 607 926 q 775 697 775 815 q 719 553 775 611 q 576 482 665 492 q 690 449 653 468 q 803 253 803 386 q 643 26 803 88 q 444 0 571 0 l 115 0 l 115 926 l 485 926 m 142 492 l 431 492 q 560 497 504 492 q 696 561 643 506 q 749 696 749 617 q 646 869 749 814 q 471 901 585 901 l 142 901 l 142 492 m 142 25 l 468 25 q 776 251 776 25 q 488 467 776 467 l 142 467 l 142 25 z "},"C":{"ha":949,"x_min":69,"x_max":893,"o":"m 893 363 q 767 86 881 194 q 488 -21 653 -21 q 164 140 285 -21 q 69 454 69 267 q 188 811 69 676 q 497 947 304 947 q 750 863 643 947 q 875 647 857 776 l 851 647 q 729 847 826 774 q 489 922 631 922 q 190 774 304 922 q 96 453 96 651 q 206 131 96 256 q 489 4 317 4 q 785 143 674 4 q 869 363 851 228 l 893 363 z "},"D":{"ha":904,"x_min":115,"x_max":833,"o":"m 418 926 q 704 828 600 926 q 833 472 833 706 q 704 106 833 238 q 413 0 599 0 l 115 0 l 115 926 l 418 926 m 142 25 l 396 25 q 683 121 586 25 q 807 472 807 240 q 692 804 807 689 q 411 901 594 901 l 142 901 l 142 25 z "},"E":{"ha":793,"x_min":115,"x_max":738,"o":"m 732 901 l 142 901 l 142 496 l 697 496 l 697 471 l 142 471 l 142 25 l 738 25 l 738 0 l 115 0 l 115 926 l 732 926 l 732 901 z "},"F":{"ha":714,"x_min":115,"x_max":686,"o":"m 686 901 l 142 901 l 142 493 l 635 493 l 635 468 l 142 468 l 142 0 l 115 0 l 115 926 l 686 926 l 686 901 z "},"G":{"ha":1003,"x_min":69,"x_max":906,"o":"m 906 0 l 879 0 l 886 272 q 811 115 861 176 q 508 -21 699 -21 q 189 110 310 -21 q 69 456 69 240 q 190 811 69 674 q 504 947 311 947 q 754 861 647 947 q 886 638 860 775 l 863 638 q 736 843 836 763 q 506 922 636 922 q 207 793 319 922 q 96 449 96 664 q 208 126 96 249 q 507 4 322 4 q 775 111 669 4 q 879 385 879 218 l 879 411 l 521 411 l 521 436 l 906 436 l 906 0 z "},"H":{"ha":933,"x_min":115,"x_max":817,"o":"m 817 0 l 790 0 l 790 471 l 142 471 l 142 0 l 115 0 l 115 926 l 142 926 l 142 496 l 790 496 l 790 926 l 817 926 l 817 0 z "},"I":{"ha":258,"x_min":115,"x_max":142,"o":"m 142 0 l 115 0 l 115 926 l 142 926 l 142 0 z "},"J":{"ha":632,"x_min":29,"x_max":531,"o":"m 531 231 q 479 57 531 117 q 282 -19 411 -19 q 54 100 107 -19 q 29 254 29 154 l 29 268 q 31 288 29 278 l 54 288 q 68 132 54 179 q 282 6 107 6 q 464 79 403 6 q 504 236 504 129 l 504 926 l 531 926 l 531 231 z "},"K":{"ha":851,"x_min":115,"x_max":851,"o":"m 374 536 l 851 0 l 818 0 l 354 518 l 142 331 l 142 0 l 115 0 l 115 926 l 142 926 l 142 363 q 200 415 160 381 l 785 926 l 821 926 l 374 536 z "},"L":{"ha":706,"x_min":115,"x_max":686,"o":"m 686 0 l 115 0 l 115 926 l 142 926 l 142 25 l 686 25 l 686 0 z "},"M":{"ha":1104,"x_min":115,"x_max":989,"o":"m 989 0 l 963 0 l 963 818 q 965 894 964 878 l 568 0 l 536 0 l 165 833 q 161 843 164 840 l 140 896 l 142 817 l 142 0 l 115 0 l 115 926 l 153 926 l 524 94 q 542 50 532 72 l 553 29 l 953 926 l 989 926 l 989 0 z "},"N":{"ha":933,"x_min":115,"x_max":817,"o":"m 817 0 l 786 0 l 181 839 l 157 875 q 140 900 149 885 l 142 832 l 142 0 l 115 0 l 115 926 l 150 926 l 757 83 l 793 31 q 790 146 790 65 l 790 926 l 817 926 l 817 0 z "},"O":{"ha":1003,"x_min":69,"x_max":935,"o":"m 501 947 q 814 810 692 947 q 935 454 935 671 q 814 111 935 244 q 501 -21 693 -21 q 189 113 308 -21 q 69 463 69 246 q 190 813 69 678 q 501 947 310 947 m 503 922 q 210 794 324 922 q 96 465 96 667 q 208 132 96 260 q 501 4 321 4 q 794 131 682 4 q 908 456 908 256 q 794 792 908 661 q 503 922 681 922 z "},"P":{"ha":819,"x_min":115,"x_max":772,"o":"m 476 926 q 668 885 606 926 q 772 672 772 818 q 697 492 772 560 q 496 422 621 422 l 142 422 l 142 0 l 115 0 l 115 926 l 476 926 m 142 447 l 456 447 q 632 478 576 447 q 746 674 746 538 q 657 861 746 801 q 475 901 601 901 l 142 901 l 142 447 z "},"Q":{"ha":1001,"x_min":69,"x_max":946,"o":"m 932 -29 l 776 78 q 504 -21 665 -21 q 178 125 303 -21 q 69 451 69 250 q 190 810 69 672 q 503 947 310 947 q 813 813 692 947 q 932 464 932 676 q 793 94 932 236 l 946 -11 l 932 -29 m 774 110 q 906 463 906 263 q 819 758 906 639 q 504 922 701 922 q 208 793 321 922 q 96 453 96 664 q 185 156 96 271 q 506 4 303 4 q 754 92 636 4 l 592 204 l 607 225 l 774 110 z "},"R":{"ha":864,"x_min":111,"x_max":785,"o":"m 478 926 q 676 881 608 926 q 776 682 776 817 q 669 486 776 550 q 561 450 631 461 q 706 392 664 435 q 756 282 746 351 q 764 151 761 251 q 779 13 769 31 l 785 0 l 757 0 q 747 31 749 11 l 742 76 l 738 158 q 719 324 733 279 q 664 396 706 368 q 449 436 603 436 l 138 436 l 138 0 l 111 0 l 111 926 l 478 926 m 138 461 l 443 461 q 651 503 579 461 q 750 688 750 560 q 667 856 750 797 q 468 901 601 901 l 138 901 l 138 461 z "},"S":{"ha":797,"x_min":42,"x_max":733,"o":"m 688 665 q 626 835 679 778 q 374 921 547 921 q 94 710 94 921 q 203 542 94 590 q 308 507 240 525 l 424 481 q 567 443 525 457 q 639 414 608 431 q 733 233 733 361 q 390 -19 733 -19 q 135 64 228 -19 q 42 292 42 147 l 42 307 l 68 307 q 132 103 68 179 q 388 6 214 6 q 707 235 707 6 q 629 392 707 344 q 561 421 599 410 q 408 460 524 433 q 240 503 292 486 q 156 540 193 518 q 68 711 68 593 q 150 883 68 819 q 374 946 232 946 q 714 665 699 946 l 688 665 z "},"T":{"ha":736,"x_min":18,"x_max":717,"o":"m 717 901 l 381 901 l 381 0 l 354 0 l 354 901 l 18 901 l 18 926 l 717 926 l 717 901 z "},"U":{"ha":893,"x_min":101,"x_max":790,"o":"m 790 347 q 449 -19 790 -19 q 142 144 228 -19 q 101 350 101 219 l 101 926 l 128 926 l 128 349 q 190 117 128 199 q 453 6 275 6 q 764 350 764 6 l 764 926 l 790 926 l 790 347 z "},"V":{"ha":788,"x_min":18,"x_max":769,"o":"m 415 0 l 381 0 l 18 926 l 47 926 l 399 26 l 413 64 q 429 111 422 89 l 743 926 l 769 926 l 415 0 z "},"W":{"ha":1222,"x_min":28,"x_max":1194,"o":"m 922 0 l 888 0 l 614 897 q 613 903 613 900 l 343 0 l 310 0 l 28 926 l 58 926 l 311 90 q 326 31 322 50 l 332 54 q 336 71 333 64 l 592 926 l 632 926 l 899 56 q 900 50 899 51 l 904 31 l 936 144 l 1168 926 l 1194 926 l 922 0 z "},"X":{"ha":788,"x_min":18,"x_max":768,"o":"m 413 475 l 768 0 l 736 0 l 400 447 l 393 454 l 51 0 l 18 0 l 376 475 l 39 926 l 71 926 l 393 497 q 424 536 415 524 l 722 926 l 751 926 l 413 475 z "},"Y":{"ha":782,"x_min":0,"x_max":782,"o":"m 403 390 l 403 0 l 376 0 l 376 390 l 0 926 l 31 926 l 390 415 l 753 926 l 782 926 l 403 390 z "},"Z":{"ha":767,"x_min":42,"x_max":729,"o":"m 719 893 l 96 64 l 67 25 l 729 25 l 729 0 l 42 0 l 42 35 l 667 865 q 694 901 690 897 l 78 901 l 78 926 l 719 926 l 719 893 z "},"[":{"ha":336,"x_min":111,"x_max":260,"o":"m 260 903 l 138 903 l 138 -208 l 260 -208 l 260 -232 l 111 -232 l 111 926 l 260 926 l 260 903 z "},"\\":{"ha":564,"x_min":56,"x_max":615,"o":"m 83 926 l 615 -232 l 588 -232 l 56 926 l 83 926 z "},"]":{"ha":336,"x_min":76,"x_max":225,"o":"m 76 -208 l 199 -208 l 199 903 l 76 903 l 76 926 l 225 926 l 225 -232 l 76 -232 l 76 -208 z "},"^":{"ha":694,"x_min":63,"x_max":633,"o":"m 63 546 l 329 926 l 365 926 l 633 546 l 596 546 l 346 906 l 97 546 l 63 546 z "},"_":{"ha":694,"x_min":0,"x_max":694,"o":"m 694 -115 l 694 -144 l 0 -144 l 0 -115 l 694 -115 z "},"‘":{"ha":249,"x_min":111,"x_max":167,"o":"m 111 765 q 129 892 111 849 q 167 940 142 921 l 167 900 q 138 782 138 857 l 138 654 l 111 654 l 111 765 z "},"a":{"ha":672,"x_min":51,"x_max":653,"o":"m 653 6 q 611 0 632 0 q 551 25 567 0 q 542 107 542 42 l 542 165 q 281 -18 464 -18 q 51 167 51 -18 q 182 343 51 299 q 314 368 226 361 l 456 378 q 540 476 540 385 q 506 600 540 561 q 332 658 451 658 q 117 461 136 658 l 93 461 q 339 682 110 682 q 565 492 565 682 l 567 82 q 613 22 568 22 q 653 28 629 22 l 653 6 m 540 390 q 425 351 510 357 l 304 342 q 78 165 78 325 q 278 6 78 6 q 494 121 418 6 q 540 265 540 190 l 540 390 z "},"b":{"ha":753,"x_min":107,"x_max":690,"o":"m 133 926 l 133 483 q 200 600 161 558 q 394 682 278 682 q 611 586 531 682 q 690 324 690 489 q 613 74 690 165 q 401 -18 535 -18 q 133 190 189 -18 l 133 0 l 107 0 l 107 926 l 133 926 m 400 658 q 207 571 278 658 q 135 332 135 482 q 207 94 135 182 q 403 6 279 6 q 664 326 664 6 q 593 568 664 478 q 400 658 521 658 z "},"c":{"ha":688,"x_min":63,"x_max":632,"o":"m 632 229 q 360 -19 599 -19 q 143 78 225 -19 q 63 336 63 175 q 146 586 63 490 q 361 682 229 682 q 625 465 600 682 l 599 465 q 367 658 564 658 q 164 569 239 658 q 89 331 89 481 q 163 94 89 185 q 357 4 238 4 q 606 229 576 4 l 632 229 z "},"d":{"ha":753,"x_min":63,"x_max":646,"o":"m 646 0 l 619 0 l 619 190 q 351 -18 564 -18 q 140 74 218 -18 q 63 324 63 165 q 142 586 63 489 q 358 682 222 682 q 568 582 489 682 q 619 483 594 550 l 619 926 l 646 926 l 646 0 m 353 658 q 160 569 231 658 q 89 326 89 479 q 350 6 89 6 q 546 94 474 6 q 618 332 618 182 q 546 571 618 482 q 353 658 475 658 z "},"e":{"ha":701,"x_min":63,"x_max":647,"o":"m 639 235 q 590 101 628 160 q 354 -18 510 -18 q 143 78 224 -18 q 63 328 63 174 q 144 583 63 485 q 357 682 226 682 q 610 528 531 682 q 646 333 647 451 l 90 333 q 115 181 90 244 q 360 6 181 6 q 553 94 479 6 q 613 235 597 147 l 639 235 m 618 358 q 571 542 617 471 q 363 658 500 658 q 136 528 208 658 q 90 358 99 461 l 618 358 z "},"f":{"ha":328,"x_min":4,"x_max":310,"o":"m 310 901 q 260 906 276 906 q 154 835 169 906 q 147 711 147 807 l 147 664 l 292 664 l 292 639 l 147 639 l 147 0 l 121 0 l 121 639 l 4 639 l 4 664 l 121 664 l 121 744 q 138 865 121 832 q 263 931 168 931 q 310 926 279 931 l 310 901 z "},"g":{"ha":738,"x_min":63,"x_max":631,"o":"m 631 44 q 594 -131 631 -71 q 353 -244 531 -244 q 97 -37 108 -244 l 124 -37 q 157 -143 131 -106 q 351 -221 213 -221 q 560 -136 501 -221 q 604 60 604 -74 l 604 226 q 565 147 588 179 q 342 36 488 36 q 138 122 211 36 q 63 357 63 207 q 140 593 63 503 q 347 682 219 682 q 604 486 543 682 l 604 664 l 631 664 l 631 44 m 347 658 q 160 576 231 658 q 89 356 89 493 q 157 140 89 221 q 339 60 225 60 q 532 140 460 60 q 604 357 604 222 q 533 575 604 493 q 347 658 463 658 z "},"h":{"ha":722,"x_min":107,"x_max":621,"o":"m 133 489 q 196 604 158 564 q 381 682 267 682 q 576 588 508 682 q 621 424 621 525 l 621 0 l 594 0 l 594 418 q 547 582 594 528 q 379 658 483 658 q 200 575 267 658 q 133 349 133 492 l 133 0 l 107 0 l 107 926 l 133 926 l 133 489 z "},"i":{"ha":240,"x_min":107,"x_max":133,"o":"m 133 794 l 107 794 l 107 928 l 133 928 l 133 794 m 133 0 l 107 0 l 107 664 l 133 664 l 133 0 z "},"j":{"ha":240,"x_min":-32,"x_max":133,"o":"m 133 -94 q -11 -231 133 -231 l -32 -231 l -32 -207 l 35 -204 q 107 -100 107 -192 l 107 664 l 133 664 l 133 -94 m 133 794 l 107 794 l 107 928 l 133 928 l 133 794 z "},"k":{"ha":678,"x_min":107,"x_max":656,"o":"m 326 414 l 656 0 l 621 0 l 307 394 l 133 253 l 133 0 l 107 0 l 107 926 l 133 926 l 133 285 l 596 664 l 635 664 l 326 414 z "},"l":{"ha":240,"x_min":107,"x_max":133,"o":"m 133 0 l 107 0 l 107 926 l 133 926 l 133 0 z "},"m":{"ha":1079,"x_min":107,"x_max":978,"o":"m 133 511 q 188 610 158 575 q 351 682 251 682 q 551 528 506 682 q 767 682 614 682 q 931 615 871 682 q 978 453 978 563 l 978 0 l 951 0 l 951 463 q 767 658 951 658 q 615 597 672 658 q 558 433 558 536 l 558 0 l 532 0 l 532 443 q 510 567 532 522 q 350 658 465 658 q 193 585 251 658 q 133 389 133 511 l 133 0 l 107 0 l 107 664 l 133 664 l 133 511 z "},"n":{"ha":724,"x_min":107,"x_max":622,"o":"m 133 499 q 383 682 196 682 q 572 601 503 682 q 622 421 622 544 l 622 0 l 596 0 l 596 418 q 572 557 596 510 q 383 658 518 658 q 175 544 240 658 q 133 354 133 474 l 133 0 l 107 0 l 107 664 l 133 664 l 133 499 z "},"o":{"ha":726,"x_min":63,"x_max":663,"o":"m 371 682 q 582 585 503 682 q 663 326 663 486 q 581 76 663 171 q 364 -18 500 -18 q 144 78 226 -18 q 63 332 63 172 q 147 586 63 490 q 371 682 232 682 m 368 658 q 167 569 243 658 q 89 338 89 481 q 163 94 89 185 q 364 6 238 6 q 563 93 488 6 q 636 326 636 181 q 563 567 636 475 q 368 658 489 658 z "},"p":{"ha":753,"x_min":107,"x_max":690,"o":"m 133 664 l 133 483 q 200 600 163 560 q 394 682 278 682 q 611 586 531 682 q 690 324 690 489 q 613 74 690 165 q 401 -18 535 -18 q 133 190 189 -18 l 133 -232 l 107 -232 l 107 664 l 133 664 m 400 658 q 207 571 278 658 q 135 332 135 482 q 207 94 135 182 q 403 6 279 6 q 664 326 664 6 q 593 568 664 478 q 400 658 521 658 z "},"q":{"ha":753,"x_min":63,"x_max":646,"o":"m 646 -232 l 619 -232 l 619 190 q 351 -18 564 -18 q 140 74 218 -18 q 63 324 63 165 q 142 586 63 489 q 358 682 222 682 q 568 582 489 682 q 619 483 594 550 l 619 664 l 646 664 l 646 -232 m 353 658 q 160 569 231 658 q 89 326 89 479 q 350 6 89 6 q 546 94 474 6 q 618 332 618 182 q 546 571 618 482 q 353 658 475 658 z "},"r":{"ha":389,"x_min":107,"x_max":399,"o":"m 399 639 q 197 551 260 638 q 143 435 157 497 q 133 301 133 397 l 133 0 l 107 0 l 107 664 l 133 664 l 133 474 q 399 664 200 665 l 399 639 z "},"s":{"ha":603,"x_min":38,"x_max":547,"o":"m 503 471 q 475 576 499 538 q 290 658 425 658 q 88 510 88 658 q 163 397 88 433 q 308 356 201 382 q 463 307 424 328 q 547 171 547 265 q 478 33 547 85 q 292 -18 407 -18 q 69 90 136 -18 q 38 229 39 140 l 64 229 q 97 96 68 139 q 294 6 154 6 q 521 171 521 6 q 435 292 521 250 q 303 331 396 310 q 132 385 174 361 q 61 508 61 425 q 292 682 61 682 q 483 611 421 682 q 531 471 525 563 l 503 471 z "},"t":{"ha":332,"x_min":-10,"x_max":290,"o":"m 290 639 l 143 639 l 143 161 q 156 61 143 85 q 236 24 175 24 q 290 29 258 24 l 290 3 q 236 -3 258 -3 q 132 47 157 -3 q 117 163 117 76 l 117 639 l -10 639 l -10 664 l 117 664 l 117 876 l 143 876 l 143 664 l 290 664 l 290 639 z "},"u":{"ha":715,"x_min":101,"x_max":608,"o":"m 608 0 l 582 0 l 582 160 q 343 -18 506 -18 q 101 240 101 -18 l 101 664 l 128 664 l 128 268 q 154 108 128 161 q 343 4 208 4 q 515 83 449 4 q 582 288 582 163 l 582 664 l 608 664 l 608 0 z "},"v":{"ha":589,"x_min":10,"x_max":581,"o":"m 325 0 l 289 0 l 10 664 l 39 664 l 307 26 l 553 664 l 581 664 l 325 0 z "},"w":{"ha":960,"x_min":18,"x_max":940,"o":"m 722 0 l 689 0 l 481 638 l 271 0 l 235 0 l 18 664 l 46 664 l 235 85 q 236 81 236 83 l 253 28 l 460 664 l 501 664 l 707 29 q 721 79 714 57 l 913 664 l 940 664 l 722 0 z "},"x":{"ha":589,"x_min":10,"x_max":579,"o":"m 311 346 l 579 0 l 546 0 l 293 326 l 40 0 l 10 0 l 278 346 l 31 664 l 65 664 l 294 365 q 304 378 299 372 l 525 664 l 556 664 l 311 346 z "},"y":{"ha":581,"x_min":10,"x_max":571,"o":"m 275 -110 q 218 -200 249 -175 q 171 -221 196 -215 l 157 -224 l 86 -228 l 86 -204 l 96 -204 q 210 -175 181 -204 q 250 -104 228 -157 l 276 -39 q 290 6 293 1 l 10 664 l 39 664 l 285 83 q 296 56 286 82 l 304 33 q 324 89 315 69 l 544 664 l 571 664 l 275 -110 z "},"z":{"ha":568,"x_min":28,"x_max":549,"o":"m 528 633 l 85 65 l 63 38 q 53 25 58 31 l 549 25 l 549 0 l 28 0 l 28 33 l 501 639 l 65 639 l 65 664 l 528 664 l 528 633 z "},"{":{"ha":336,"x_min":56,"x_max":293,"o":"m 164 493 q 78 346 164 379 q 164 193 164 314 l 164 -60 q 293 -214 164 -204 l 293 -232 q 167 -182 203 -229 q 138 -21 138 -143 l 138 199 q 56 339 138 307 l 56 353 q 138 493 138 382 l 138 743 q 163 869 138 831 q 286 926 199 926 l 293 926 l 293 908 q 164 763 164 897 l 164 493 z "},"|":{"ha":694,"x_min":333,"x_max":360,"o":"m 360 926 l 360 -232 l 333 -232 l 333 926 l 360 926 z "},"}":{"ha":336,"x_min":44,"x_max":282,"o":"m 174 193 q 260 346 174 314 q 174 493 174 379 l 174 763 q 44 908 174 897 l 44 926 l 51 926 q 175 869 139 926 q 200 743 200 831 l 200 493 q 282 353 200 382 l 282 339 q 200 199 200 307 l 200 -21 q 161 -194 200 -153 q 44 -232 125 -229 l 44 -214 q 174 -60 174 -204 l 174 193 z "},"~":{"ha":926,"x_min":133,"x_max":793,"o":"m 133 851 q 306 981 208 981 q 471 919 360 981 q 619 864 572 864 q 771 983 700 864 l 793 969 q 621 839 719 839 q 539 858 586 839 q 429 914 513 869 q 306 956 353 956 q 157 838 225 956 l 133 851 z "},"¡":{"ha":314,"x_min":129,"x_max":156,"o":"m 129 689 l 156 689 l 156 0 l 129 0 l 129 689 m 129 926 l 156 926 l 156 799 l 129 799 l 129 926 z "},"¢":{"ha":796,"x_min":119,"x_max":686,"o":"m 686 353 q 425 107 656 115 l 425 -31 l 399 -31 l 399 107 q 119 461 119 129 q 235 743 119 647 q 399 807 299 796 l 399 921 l 425 921 l 425 807 q 608 736 539 801 q 681 588 669 678 l 654 588 q 425 783 622 772 l 425 131 q 660 353 631 131 l 686 353 m 399 782 q 146 458 146 758 q 399 131 146 157 l 399 782 z "},"£":{"ha":796,"x_min":99,"x_max":753,"o":"m 675 597 q 401 879 674 879 q 131 671 131 879 q 189 511 131 610 q 226 444 218 461 l 435 444 l 435 419 l 242 419 q 279 265 279 339 q 228 110 279 188 q 149 18 204 75 l 171 31 q 285 63 229 63 q 394 38 329 63 l 425 26 q 433 24 431 24 l 456 15 q 535 0 499 0 q 735 104 654 0 l 753 86 q 535 -25 646 -25 q 422 0 492 -25 q 279 38 321 38 q 121 -24 204 38 l 99 3 q 253 271 253 117 q 214 419 253 351 l 111 419 l 111 444 l 199 444 l 146 535 q 104 676 104 613 q 185 840 104 778 q 396 904 265 904 q 700 597 700 904 l 675 597 z "},"⁄":{"ha":192,"x_min":-208,"x_max":400,"o":"m -179 0 l -208 0 l 371 901 l 400 901 l -179 0 z "},"¥":{"ha":796,"x_min":92,"x_max":704,"o":"m 92 885 l 122 885 l 399 421 l 674 885 l 704 885 l 483 510 l 676 510 l 676 485 l 469 485 l 411 390 l 411 333 l 649 333 l 649 308 l 411 308 l 411 0 l 385 0 l 385 308 l 147 308 l 147 333 l 385 333 l 385 390 l 326 485 l 119 485 l 119 510 l 313 510 l 92 885 z "},"ƒ":{"ha":796,"x_min":86,"x_max":699,"o":"m 601 617 l 436 617 l 331 22 q 144 -232 288 -232 q 86 -224 119 -232 l 90 -197 q 149 -204 124 -204 q 269 -107 229 -204 q 311 68 289 -58 l 408 617 l 251 617 l 257 640 l 413 640 l 438 782 q 507 956 460 914 q 624 996 551 996 q 699 988 657 996 l 693 963 q 624 969 657 969 q 464 774 497 969 l 440 640 l 606 640 l 601 617 z "},"§":{"ha":796,"x_min":111,"x_max":686,"o":"m 583 678 q 381 882 583 882 q 210 739 210 882 q 246 646 210 685 q 356 575 274 619 q 586 433 529 479 q 686 265 686 356 q 533 89 686 136 q 613 -56 613 19 q 554 -183 613 -133 q 400 -232 494 -232 q 172 -1 172 -232 l 172 11 l 197 11 q 399 -208 200 -208 q 586 -57 586 -208 q 526 61 586 14 q 369 163 492 92 q 233 244 263 225 q 111 421 111 328 q 257 604 111 547 q 183 742 183 651 q 239 860 183 815 q 382 906 293 906 q 610 678 601 906 l 583 678 m 278 590 q 138 422 138 531 q 201 303 138 351 q 333 214 232 276 l 472 131 l 510 106 q 660 264 660 149 q 594 390 660 331 q 349 550 529 451 l 278 590 z "},"¤":{"ha":926,"x_min":117,"x_max":808,"o":"m 242 272 q 160 475 160 363 q 238 678 160 588 l 117 799 l 136 817 l 256 697 q 463 779 346 779 q 668 697 582 779 l 789 817 l 808 799 l 688 678 q 764 475 764 588 q 686 275 764 364 l 808 151 l 790 133 l 667 256 q 463 176 575 176 q 261 253 350 176 l 140 132 l 122 153 l 242 272 m 463 754 q 267 674 347 754 q 186 475 186 592 q 268 282 186 363 q 463 201 349 201 q 657 282 576 201 q 738 475 738 363 q 657 674 738 592 q 463 754 578 754 z "},"'":{"ha":208,"x_min":90,"x_max":118,"o":"m 94 553 l 90 926 l 118 926 l 114 553 l 94 553 z "},"“":{"ha":381,"x_min":111,"x_max":299,"o":"m 243 765 q 261 892 243 849 q 299 940 274 921 l 299 900 q 269 782 269 857 l 269 654 l 243 654 l 243 765 m 111 765 q 129 892 111 849 q 167 940 142 921 l 167 900 q 138 782 138 857 l 138 654 l 111 654 l 111 765 z "},"«":{"ha":422,"x_min":74,"x_max":329,"o":"m 74 326 l 74 350 l 200 526 l 200 486 l 96 336 l 200 199 l 200 156 l 74 326 m 200 325 l 200 349 l 329 528 l 329 490 l 222 336 l 329 192 l 329 153 l 200 325 z "},"‹":{"ha":296,"x_min":74,"x_max":203,"o":"m 74 325 l 74 349 l 203 528 l 203 490 l 96 336 l 203 193 l 203 153 l 74 325 z "},"›":{"ha":296,"x_min":93,"x_max":222,"o":"m 222 356 l 222 333 l 93 153 l 93 192 l 200 344 l 93 489 l 93 528 l 222 356 z "},"ﬁ":{"ha":567,"x_min":4,"x_max":461,"o":"m 310 901 q 260 906 276 906 q 154 835 169 906 q 147 711 147 807 l 147 664 l 292 664 l 292 639 l 147 639 l 147 0 l 121 0 l 121 639 l 4 639 l 4 664 l 121 664 l 121 744 q 138 865 121 832 q 263 931 168 931 q 310 926 279 931 l 310 901 m 461 794 l 435 794 l 435 928 l 461 928 l 461 794 m 461 0 l 435 0 l 435 664 l 461 664 l 461 0 z "},"ﬂ":{"ha":567,"x_min":4,"x_max":461,"o":"m 310 901 q 260 906 276 906 q 154 835 169 906 q 147 711 147 807 l 147 664 l 292 664 l 292 639 l 147 639 l 147 0 l 121 0 l 121 639 l 4 639 l 4 664 l 121 664 l 121 744 q 138 865 121 832 q 263 931 168 931 q 310 926 279 931 l 310 901 m 461 0 l 435 0 l 435 926 l 461 926 l 461 0 z "},"–":{"ha":796,"x_min":97,"x_max":699,"o":"m 699 329 l 97 329 l 97 353 l 699 353 l 699 329 z "},"†":{"ha":796,"x_min":113,"x_max":685,"o":"m 685 585 l 413 585 l 413 -232 l 386 -232 l 386 585 l 113 585 l 113 610 l 386 610 l 386 926 l 413 926 l 413 610 l 685 610 l 685 585 z "},"‡":{"ha":796,"x_min":114,"x_max":683,"o":"m 683 632 l 413 632 l 413 64 l 683 64 l 683 39 l 413 39 l 413 -232 l 386 -232 l 386 39 l 114 39 l 114 64 l 386 64 l 386 632 l 114 632 l 114 657 l 386 657 l 386 926 l 413 926 l 413 657 l 683 657 l 683 632 z "},"·":{"ha":249,"x_min":111,"x_max":138,"o":"m 138 278 l 111 278 l 111 406 l 138 406 l 138 278 z "},"¶":{"ha":796,"x_min":89,"x_max":686,"o":"m 374 429 l 353 429 q 200 469 260 431 q 89 676 89 536 q 211 892 89 826 q 381 926 276 926 l 686 926 l 686 901 l 599 901 l 599 -157 l 572 -157 l 572 901 l 400 901 l 400 -157 l 374 -157 l 374 429 z "},"•":{"ha":926,"x_min":272,"x_max":657,"o":"m 467 663 q 601 607 544 663 q 657 471 657 550 q 601 335 657 392 q 467 278 544 278 q 329 335 386 278 q 272 471 272 390 q 329 607 272 550 q 467 663 386 663 z "},"‚":{"ha":249,"x_min":82,"x_max":138,"o":"m 138 17 q 119 -108 138 -65 q 82 -158 107 -139 l 82 -118 q 111 1 111 -75 l 111 128 l 138 128 l 138 17 z "},"„":{"ha":381,"x_min":82,"x_max":269,"o":"m 138 17 q 119 -108 138 -65 q 82 -158 107 -139 l 82 -118 q 111 1 111 -75 l 111 128 l 138 128 l 138 17 m 269 17 q 251 -108 269 -65 q 214 -158 239 -139 l 214 -118 q 243 1 243 -75 l 243 128 l 269 128 l 269 17 z "},"”":{"ha":381,"x_min":82,"x_max":269,"o":"m 138 815 q 119 690 138 732 q 82 640 107 660 l 82 681 q 111 799 111 722 l 111 926 l 138 926 l 138 815 m 269 815 q 251 690 269 732 q 214 640 239 660 l 214 681 q 243 799 243 722 l 243 926 l 269 926 l 269 815 z "},"»":{"ha":422,"x_min":93,"x_max":349,"o":"m 349 356 l 349 332 l 222 156 l 222 194 l 326 346 l 222 483 l 222 526 l 349 356 m 222 356 l 222 333 l 93 153 l 93 192 l 200 344 l 93 489 l 93 528 l 222 356 z "},"…":{"ha":747,"x_min":111,"x_max":636,"o":"m 138 0 l 111 0 l 111 128 l 138 128 l 138 0 m 386 0 l 360 0 l 360 128 l 386 128 l 386 0 m 636 0 l 610 0 l 610 128 l 636 128 l 636 0 z "},"‰":{"ha":1457,"x_min":63,"x_max":1394,"o":"m 204 -37 l 175 -37 l 782 939 l 813 939 l 204 -37 m 726 425 q 925 208 925 425 q 724 -14 925 -14 q 526 211 526 -14 q 726 425 526 425 m 728 400 q 551 203 551 400 q 724 8 551 8 q 901 210 901 8 q 728 400 901 400 m 1194 425 q 1394 206 1394 425 q 1340 47 1394 107 q 1196 -12 1286 -12 q 994 208 994 -12 q 1194 425 994 425 m 1194 401 q 1019 208 1019 401 q 1194 11 1019 11 q 1369 207 1369 11 q 1194 401 1369 401 m 264 917 q 461 694 461 917 q 406 538 461 596 q 257 478 350 478 q 63 701 63 478 q 264 917 63 917 m 263 892 q 86 694 86 892 q 257 503 86 503 q 436 696 436 503 q 263 892 436 892 z "},"¿":{"ha":682,"x_min":64,"x_max":603,"o":"m 603 286 q 561 101 603 171 q 325 -21 489 -21 q 138 43 211 -21 q 64 204 64 107 q 125 363 64 288 l 135 372 q 146 385 139 379 q 179 418 160 400 l 225 461 q 304 556 290 524 q 319 689 318 588 l 346 689 q 339 578 346 613 q 288 486 326 526 q 233 435 275 472 q 90 206 90 307 q 157 61 90 118 q 324 4 222 4 q 547 133 485 4 q 576 286 575 185 l 603 286 m 319 926 l 346 926 l 346 800 l 319 800 l 319 926 z "},"`":{"ha":694,"x_min":186,"x_max":397,"o":"m 397 764 l 365 764 l 186 946 l 221 946 l 397 764 z "},"´":{"ha":694,"x_min":299,"x_max":507,"o":"m 328 764 l 299 764 l 472 946 l 507 946 l 328 764 z "},"ˆ":{"ha":694,"x_min":183,"x_max":511,"o":"m 475 764 l 344 925 l 218 764 l 183 764 l 331 946 l 364 946 l 511 764 l 475 764 z "},"˜":{"ha":694,"x_min":185,"x_max":508,"o":"m 508 904 q 426 806 489 806 q 349 842 393 806 q 271 885 296 885 q 211 807 224 885 l 185 807 q 271 910 203 910 q 353 869 301 910 q 424 831 400 831 q 483 904 465 831 l 508 904 z "},"¯":{"ha":694,"x_min":165,"x_max":529,"o":"m 529 829 l 165 829 l 165 854 l 529 854 l 529 829 z "},"˘":{"ha":694,"x_min":204,"x_max":508,"o":"m 229 935 q 356 797 254 797 q 483 935 458 797 l 508 935 q 356 774 490 774 q 204 935 222 774 l 229 935 z "},"˙":{"ha":694,"x_min":333,"x_max":360,"o":"m 360 793 l 333 793 l 333 928 l 360 928 l 360 793 z "},"¨":{"ha":694,"x_min":225,"x_max":469,"o":"m 469 793 l 443 793 l 443 928 l 469 928 l 469 793 m 251 793 l 225 793 l 225 928 l 251 928 l 251 793 z "},"˚":{"ha":694,"x_min":232,"x_max":461,"o":"m 346 985 q 461 869 461 985 q 346 754 461 754 q 265 788 299 754 q 232 869 232 822 q 265 951 232 917 q 346 985 299 985 m 346 958 q 258 869 258 958 q 346 781 258 781 q 435 869 435 781 q 346 958 435 958 z "},"¸":{"ha":694,"x_min":219,"x_max":460,"o":"m 315 -82 q 368 -76 350 -76 q 460 -153 460 -76 q 333 -249 460 -249 q 219 -222 286 -249 l 229 -199 q 333 -225 288 -225 q 432 -158 432 -225 q 358 -100 432 -100 q 289 -117 329 -100 l 271 -101 l 343 0 l 372 0 l 315 -82 z "},"˝":{"ha":694,"x_min":233,"x_max":553,"o":"m 263 764 l 233 764 l 361 946 l 396 946 l 263 764 m 421 764 l 390 764 l 518 946 l 553 946 l 421 764 z "},"˛":{"ha":694,"x_min":322,"x_max":519,"o":"m 428 0 q 349 -114 349 -56 q 450 -196 349 -196 q 519 -182 482 -196 l 519 -208 q 447 -222 482 -222 q 322 -118 322 -222 q 394 0 322 -51 l 428 0 z "},"ˇ":{"ha":694,"x_min":183,"x_max":511,"o":"m 219 946 l 349 785 l 476 946 l 511 946 l 364 764 l 331 764 l 183 946 l 219 946 z "},"—":{"ha":871,"x_min":0,"x_max":871,"o":"m 871 329 l 0 329 l 0 353 l 871 353 l 871 329 z "},"Æ":{"ha":1171,"x_min":10,"x_max":1115,"o":"m 1115 901 l 604 901 l 604 490 l 1074 490 l 1074 465 l 604 465 l 604 25 l 1115 25 l 1115 0 l 578 0 l 578 357 l 228 357 l 39 0 l 10 0 l 501 926 l 1115 926 l 1115 901 m 578 904 l 515 904 l 240 382 l 578 382 l 578 904 z "},"ª":{"ha":531,"x_min":58,"x_max":471,"o":"m 58 422 l 58 449 l 471 449 l 471 422 l 58 422 m 442 560 q 413 556 425 556 q 369 622 369 556 q 235 544 318 544 q 106 650 106 544 q 179 751 106 726 q 253 765 213 763 l 329 771 q 369 814 369 774 q 353 881 369 863 q 264 911 325 911 q 153 804 161 911 l 128 804 q 263 936 136 936 q 394 826 394 936 l 394 632 q 396 611 394 618 q 397 588 396 594 q 403 579 399 581 l 414 579 q 442 585 425 579 l 442 560 m 369 758 q 347 749 357 750 l 339 747 q 326 746 333 746 l 249 740 q 132 650 132 732 q 233 569 132 569 q 331 608 290 569 q 369 704 369 647 l 369 758 z "},"Ł":{"ha":706,"x_min":14,"x_max":688,"o":"m 115 926 l 142 926 l 142 463 l 378 631 l 378 600 l 142 432 l 142 25 l 688 25 l 688 0 l 115 0 l 115 415 l 14 339 l 14 369 l 115 447 l 115 926 z "},"Ø":{"ha":1003,"x_min":69,"x_max":933,"o":"m 819 803 q 933 453 933 660 q 813 111 933 243 q 500 -21 692 -21 q 189 111 319 -21 l 96 4 l 79 22 l 174 131 q 69 457 69 268 q 188 811 69 675 q 492 947 304 947 q 803 819 682 947 l 892 918 l 910 901 l 819 803 m 786 801 q 492 922 661 922 q 192 775 308 922 q 96 454 96 654 q 194 150 96 276 l 786 801 m 208 132 q 500 4 324 4 q 806 144 686 4 q 907 454 907 264 q 801 782 907 651 l 208 132 z "},"Œ":{"ha":1449,"x_min":71,"x_max":1393,"o":"m 1393 901 l 819 901 l 819 489 l 1331 489 l 1331 464 l 819 464 l 819 25 l 1393 25 l 1393 0 l 793 0 l 793 92 q 503 -21 672 -21 q 168 147 300 -21 q 71 460 71 269 q 194 810 71 674 q 513 947 319 947 q 793 843 663 947 l 793 926 l 1393 926 l 1393 901 m 793 810 q 790 815 793 813 l 769 832 q 663 894 713 875 q 511 922 593 922 q 192 767 315 922 q 97 457 97 647 q 214 131 97 251 q 504 4 332 4 q 738 72 633 4 q 765 96 747 79 l 790 118 q 793 124 793 122 l 793 810 z "},"º":{"ha":531,"x_min":58,"x_max":471,"o":"m 58 422 l 58 449 l 471 449 l 471 422 l 58 422 m 269 936 q 433 739 433 936 q 265 546 433 546 q 97 744 97 546 q 146 883 97 829 q 269 936 193 936 m 265 911 q 124 744 124 911 q 265 571 124 571 q 407 738 407 571 q 265 911 407 911 z "},"æ":{"ha":1182,"x_min":51,"x_max":1126,"o":"m 1117 226 q 836 -18 1079 -18 q 561 206 615 -18 q 275 -18 504 -18 q 51 168 51 -18 q 186 347 51 304 q 324 367 229 363 l 393 372 q 522 393 496 379 q 549 460 549 408 q 336 658 549 658 q 111 458 129 658 l 86 458 q 335 682 104 682 q 531 611 472 682 q 571 476 564 571 q 649 611 601 567 q 836 682 726 682 q 1047 594 968 682 q 1126 361 1126 507 l 1126 331 l 572 331 q 600 158 574 218 q 844 6 669 6 q 1049 110 981 6 q 1092 226 1079 156 l 1117 226 m 1101 356 q 1050 549 1101 472 q 839 658 976 658 q 606 513 679 658 q 572 356 574 451 l 1101 356 m 549 389 q 499 360 525 365 q 383 347 471 353 q 272 339 322 344 q 78 168 78 318 q 275 6 78 6 q 471 88 392 6 q 549 289 549 168 l 549 389 z "},"ı":{"ha":240,"x_min":107,"x_max":133,"o":"m 133 0 l 107 0 l 107 664 l 133 664 l 133 0 z "},"ł":{"ha":240,"x_min":10,"x_max":231,"o":"m 107 926 l 133 926 l 133 524 l 231 597 l 231 567 l 133 493 l 133 0 l 107 0 l 107 478 l 10 404 l 10 435 l 107 508 l 107 926 z "},"ø":{"ha":726,"x_min":54,"x_max":674,"o":"m 601 564 q 664 335 664 468 q 585 76 664 171 q 367 -18 506 -18 q 143 82 226 -18 l 71 6 l 54 24 l 126 103 q 65 332 65 204 q 149 586 65 489 q 369 682 233 682 q 588 583 504 682 l 656 654 l 674 639 l 601 564 m 568 563 q 367 658 493 658 q 168 568 244 658 q 92 332 92 478 q 144 121 92 214 l 568 563 m 160 101 q 367 6 236 6 q 581 117 503 6 q 638 333 638 201 q 582 543 638 446 l 160 101 z "},"œ":{"ha":1199,"x_min":63,"x_max":1143,"o":"m 1138 221 q 857 -18 1078 -18 q 601 207 646 -18 q 344 -18 547 -18 q 138 74 214 -18 q 63 324 63 165 q 139 585 63 488 q 343 682 215 682 q 550 578 479 682 q 601 450 579 536 q 671 600 626 547 q 868 683 743 683 q 1090 565 1014 683 q 1143 331 1142 485 l 615 331 l 615 293 q 681 83 615 161 q 858 6 747 6 q 1113 221 1056 6 l 1138 221 m 1118 356 q 1065 558 1111 492 q 867 660 994 660 q 654 536 719 660 q 615 356 619 469 l 1118 356 m 340 658 q 89 324 89 658 q 346 6 89 6 q 589 326 589 6 q 340 658 589 658 z "},"ß":{"ha":689,"x_min":107,"x_max":626,"o":"m 333 25 q 538 89 481 26 q 600 275 600 158 q 315 507 600 507 l 299 507 l 299 532 l 319 532 q 551 728 551 532 q 492 872 551 817 q 336 928 431 928 q 133 728 133 928 l 133 0 l 107 0 l 107 688 q 132 846 107 800 q 333 951 188 951 q 510 888 443 951 q 578 724 578 825 q 493 554 578 611 q 410 521 465 535 q 626 272 626 503 q 540 56 626 133 q 353 0 476 0 l 299 0 l 299 25 l 333 25 z "},"Ä":{"ha":814,"x_min":18,"x_max":794,"o":"m 794 0 l 765 0 l 643 306 l 172 306 l 47 0 l 18 0 l 399 926 l 424 926 l 794 0 m 417 879 l 411 897 l 182 331 l 633 331 l 417 879 m 554 1025 l 528 1025 l 528 1146 l 554 1146 l 554 1025 m 294 1025 l 268 1025 l 268 1146 l 294 1146 l 294 1025 z "},"Å":{"ha":814,"x_min":18,"x_max":794,"o":"m 794 0 l 765 0 l 643 306 l 172 306 l 47 0 l 18 0 l 399 926 l 424 926 l 794 0 m 417 879 l 411 897 l 182 331 l 633 331 l 417 879 m 411 1221 q 526 1106 526 1221 q 411 990 526 990 q 296 1106 296 990 q 411 1221 296 1221 m 411 1194 q 322 1106 322 1194 q 411 1017 322 1017 q 500 1106 500 1017 q 411 1194 500 1194 z "},"É":{"ha":793,"x_min":115,"x_max":732,"o":"m 732 901 l 142 901 l 142 496 l 697 496 l 697 471 l 142 471 l 142 25 l 732 25 l 732 0 l 115 0 l 115 926 l 732 926 l 732 901 m 406 1004 l 371 1004 l 560 1168 l 599 1168 l 406 1004 z "},"Ñ":{"ha":933,"x_min":115,"x_max":817,"o":"m 817 0 l 786 0 l 181 839 l 157 875 q 140 900 149 885 l 142 832 l 142 0 l 115 0 l 115 926 l 150 926 l 757 83 l 793 31 q 790 146 790 65 l 790 926 l 817 926 l 817 0 m 654 1132 q 565 1033 632 1033 q 482 1069 531 1033 q 399 1113 425 1113 q 331 1033 346 1113 l 306 1033 q 397 1138 324 1138 q 486 1097 433 1138 q 565 1058 536 1058 q 629 1132 610 1058 l 654 1132 z "},"Ö":{"ha":1003,"x_min":69,"x_max":935,"o":"m 501 947 q 814 810 692 947 q 935 454 935 671 q 814 111 935 244 q 501 -21 693 -21 q 189 113 308 -21 q 69 463 69 246 q 190 813 69 678 q 501 947 310 947 m 503 922 q 210 794 324 922 q 96 465 96 667 q 208 132 96 260 q 501 4 321 4 q 794 131 682 4 q 908 456 908 256 q 794 792 908 661 q 503 922 681 922 m 644 1025 l 618 1025 l 618 1146 l 644 1146 l 644 1025 m 385 1025 l 358 1025 l 358 1146 l 385 1146 l 385 1025 z "},"Ü":{"ha":893,"x_min":101,"x_max":790,"o":"m 790 347 q 449 -19 790 -19 q 142 144 228 -19 q 101 350 101 219 l 101 926 l 128 926 l 128 349 q 190 117 128 199 q 453 6 275 6 q 764 350 764 6 l 764 926 l 790 926 l 790 347 m 589 1025 l 563 1025 l 563 1146 l 589 1146 l 589 1025 m 329 1025 l 303 1025 l 303 1146 l 329 1146 l 329 1025 z "},"á":{"ha":672,"x_min":51,"x_max":653,"o":"m 653 6 q 611 0 632 0 q 551 25 567 0 q 542 107 542 42 l 542 165 q 281 -18 464 -18 q 51 167 51 -18 q 182 343 51 299 q 314 368 226 361 l 456 378 q 540 476 540 385 q 506 600 540 561 q 332 658 451 658 q 117 461 136 658 l 93 461 q 339 682 110 682 q 565 492 565 682 l 567 82 q 613 22 568 22 q 653 28 629 22 l 653 6 m 540 390 q 425 351 510 357 l 304 342 q 78 165 78 325 q 278 6 78 6 q 494 121 418 6 q 540 265 540 190 l 540 390 m 308 764 l 279 764 l 453 946 l 488 946 l 308 764 z "},"à":{"ha":672,"x_min":51,"x_max":653,"o":"m 653 6 q 611 0 632 0 q 551 25 567 0 q 542 107 542 42 l 542 165 q 281 -18 464 -18 q 51 167 51 -18 q 182 343 51 299 q 314 368 226 361 l 456 378 q 540 476 540 385 q 506 600 540 561 q 332 658 451 658 q 117 461 136 658 l 93 461 q 339 682 110 682 q 565 492 565 682 l 567 82 q 613 22 568 22 q 653 28 629 22 l 653 6 m 540 390 q 425 351 510 357 l 304 342 q 78 165 78 325 q 278 6 78 6 q 494 121 418 6 q 540 265 540 190 l 540 390 m 404 764 l 372 764 l 193 946 l 228 946 l 404 764 z "},"â":{"ha":672,"x_min":51,"x_max":653,"o":"m 653 6 q 611 0 632 0 q 551 25 567 0 q 542 107 542 42 l 542 165 q 281 -18 464 -18 q 51 167 51 -18 q 182 343 51 299 q 314 368 226 361 l 456 378 q 540 476 540 385 q 506 600 540 561 q 332 658 451 658 q 117 461 136 658 l 93 461 q 339 682 110 682 q 565 492 565 682 l 567 82 q 613 22 568 22 q 653 28 629 22 l 653 6 m 540 390 q 425 351 510 357 l 304 342 q 78 165 78 325 q 278 6 78 6 q 494 121 418 6 q 540 265 540 190 l 540 390 m 469 764 l 339 925 l 213 764 l 178 764 l 325 946 l 358 946 l 506 764 l 469 764 z "},"ä":{"ha":672,"x_min":51,"x_max":653,"o":"m 653 6 q 611 0 632 0 q 551 25 567 0 q 542 107 542 42 l 542 165 q 281 -18 464 -18 q 51 167 51 -18 q 182 343 51 299 q 314 368 226 361 l 456 378 q 540 476 540 385 q 506 600 540 561 q 332 658 451 658 q 117 461 136 658 l 93 461 q 339 682 110 682 q 565 492 565 682 l 567 82 q 613 22 568 22 q 653 28 629 22 l 653 6 m 540 390 q 425 351 510 357 l 304 342 q 78 165 78 325 q 278 6 78 6 q 494 121 418 6 q 540 265 540 190 l 540 390 m 460 793 l 433 793 l 433 928 l 460 928 l 460 793 m 242 793 l 215 793 l 215 928 l 242 928 l 242 793 z "},"ã":{"ha":672,"x_min":51,"x_max":653,"o":"m 653 6 q 611 0 632 0 q 551 25 567 0 q 542 107 542 42 l 542 165 q 281 -18 464 -18 q 51 167 51 -18 q 182 343 51 299 q 314 368 226 361 l 456 378 q 540 476 540 385 q 506 600 540 561 q 332 658 451 658 q 117 461 136 658 l 93 461 q 339 682 110 682 q 565 492 565 682 l 567 82 q 613 22 568 22 q 653 28 629 22 l 653 6 m 540 390 q 425 351 510 357 l 304 342 q 78 165 78 325 q 278 6 78 6 q 494 121 418 6 q 540 265 540 190 l 540 390 m 503 904 q 421 806 483 806 q 343 842 388 806 q 265 885 290 885 q 206 807 218 885 l 179 807 q 265 910 197 910 q 347 869 296 910 q 418 831 394 831 q 478 904 460 831 l 503 904 z "},"å":{"ha":672,"x_min":51,"x_max":653,"o":"m 653 6 q 611 0 632 0 q 551 25 567 0 q 542 107 542 42 l 542 165 q 281 -18 464 -18 q 51 167 51 -18 q 182 343 51 299 q 314 368 226 361 l 456 378 q 540 476 540 385 q 506 600 540 561 q 332 658 451 658 q 117 461 136 658 l 93 461 q 339 682 110 682 q 565 492 565 682 l 567 82 q 613 22 568 22 q 653 28 629 22 l 653 6 m 540 390 q 425 351 510 357 l 304 342 q 78 165 78 325 q 278 6 78 6 q 494 121 418 6 q 540 265 540 190 l 540 390 m 338 985 q 453 869 453 985 q 338 754 453 754 q 257 788 290 754 q 224 869 224 822 q 257 951 224 917 q 338 985 290 985 m 338 958 q 250 869 250 958 q 338 781 250 781 q 426 869 426 781 q 338 958 426 958 z "},"é":{"ha":701,"x_min":63,"x_max":647,"o":"m 639 235 q 590 101 628 160 q 354 -18 510 -18 q 143 78 224 -18 q 63 328 63 174 q 144 583 63 485 q 357 682 226 682 q 610 528 531 682 q 646 333 647 451 l 90 333 q 115 181 90 244 q 360 6 181 6 q 553 94 479 6 q 613 235 597 147 l 639 235 m 618 358 q 571 542 617 471 q 363 658 500 658 q 136 528 208 658 q 90 358 99 461 l 618 358 m 336 764 l 307 764 l 481 946 l 515 946 l 336 764 z "},"è":{"ha":701,"x_min":63,"x_max":647,"o":"m 639 235 q 590 101 628 160 q 354 -18 510 -18 q 143 78 224 -18 q 63 328 63 174 q 144 583 63 485 q 357 682 226 682 q 610 528 531 682 q 646 333 647 451 l 90 333 q 115 181 90 244 q 360 6 181 6 q 553 94 479 6 q 613 235 597 147 l 639 235 m 618 358 q 571 542 617 471 q 363 658 500 658 q 136 528 208 658 q 90 358 99 461 l 618 358 m 433 764 l 401 764 l 222 946 l 257 946 l 433 764 z "},"ê":{"ha":701,"x_min":63,"x_max":647,"o":"m 639 235 q 590 101 628 160 q 354 -18 510 -18 q 143 78 224 -18 q 63 328 63 174 q 144 583 63 485 q 357 682 226 682 q 610 528 531 682 q 646 333 647 451 l 90 333 q 115 181 90 244 q 360 6 181 6 q 553 94 479 6 q 613 235 597 147 l 639 235 m 618 358 q 571 542 617 471 q 363 658 500 658 q 136 528 208 658 q 90 358 99 461 l 618 358 m 493 764 l 363 925 l 236 764 l 201 764 l 349 946 l 382 946 l 529 764 l 493 764 z "},"ë":{"ha":701,"x_min":63,"x_max":647,"o":"m 639 235 q 590 101 628 160 q 354 -18 510 -18 q 143 78 224 -18 q 63 328 63 174 q 144 583 63 485 q 357 682 226 682 q 610 528 531 682 q 646 333 647 451 l 90 333 q 115 181 90 244 q 360 6 181 6 q 553 94 479 6 q 613 235 597 147 l 639 235 m 618 358 q 571 542 617 471 q 363 658 500 658 q 136 528 208 658 q 90 358 99 461 l 618 358 m 488 793 l 461 793 l 461 928 l 488 928 l 488 793 m 269 793 l 243 793 l 243 928 l 269 928 l 269 793 z "},"í":{"ha":240,"x_min":83,"x_max":263,"o":"m 133 0 l 107 0 l 107 664 l 133 664 l 133 0 m 111 764 l 83 764 l 229 946 l 263 946 l 111 764 z "},"ì":{"ha":240,"x_min":-22,"x_max":157,"o":"m 132 0 l 106 0 l 106 664 l 132 664 l 132 0 m 11 946 l 157 764 l 129 764 l -22 946 l 11 946 z "},"î":{"ha":239,"x_min":-21,"x_max":260,"o":"m 133 0 l 107 0 l 107 664 l 133 664 l 133 0 m 228 764 l 118 925 l 13 764 l -21 764 l 103 946 l 136 946 l 260 764 l 228 764 z "},"ï":{"ha":240,"x_min":35,"x_max":206,"o":"m 133 0 l 107 0 l 107 664 l 133 664 l 133 0 m 206 793 l 179 793 l 179 928 l 206 928 l 206 793 m 61 793 l 35 793 l 35 928 l 61 928 l 61 793 z "},"ñ":{"ha":724,"x_min":107,"x_max":622,"o":"m 133 499 q 383 682 196 682 q 572 601 503 682 q 622 421 622 544 l 622 0 l 596 0 l 596 418 q 572 557 596 510 q 383 658 518 658 q 175 544 240 658 q 133 354 133 474 l 133 0 l 107 0 l 107 664 l 133 664 l 133 499 m 524 904 q 442 806 504 806 q 364 842 408 806 q 286 885 311 885 q 226 807 239 885 l 200 807 q 286 910 218 910 q 368 869 317 910 q 439 831 415 831 q 499 904 481 831 l 524 904 z "},"ó":{"ha":726,"x_min":63,"x_max":663,"o":"m 371 682 q 582 585 503 682 q 663 326 663 486 q 581 76 663 171 q 364 -18 500 -18 q 144 78 226 -18 q 63 332 63 172 q 147 586 63 490 q 371 682 232 682 m 368 658 q 167 569 243 658 q 89 338 89 481 q 163 94 89 185 q 364 6 238 6 q 563 93 488 6 q 636 326 636 181 q 563 567 636 475 q 368 658 489 658 m 339 764 l 310 764 l 483 946 l 518 946 l 339 764 z "},"ò":{"ha":726,"x_min":63,"x_max":663,"o":"m 371 682 q 582 585 503 682 q 663 326 663 486 q 581 76 663 171 q 364 -18 500 -18 q 144 78 226 -18 q 63 332 63 172 q 147 586 63 490 q 371 682 232 682 m 368 658 q 167 569 243 658 q 89 338 89 481 q 163 94 89 185 q 364 6 238 6 q 563 93 488 6 q 636 326 636 181 q 563 567 636 475 q 368 658 489 658 m 431 764 l 399 764 l 219 946 l 254 946 l 431 764 z "},"ô":{"ha":726,"x_min":63,"x_max":663,"o":"m 371 682 q 582 585 503 682 q 663 326 663 486 q 581 76 663 171 q 364 -18 500 -18 q 144 78 226 -18 q 63 332 63 172 q 147 586 63 490 q 371 682 232 682 m 368 658 q 167 569 243 658 q 89 338 89 481 q 163 94 89 185 q 364 6 238 6 q 563 93 488 6 q 636 326 636 181 q 563 567 636 475 q 368 658 489 658 m 490 764 l 360 925 l 233 764 l 199 764 l 346 946 l 379 946 l 526 764 l 490 764 z "},"ö":{"ha":726,"x_min":63,"x_max":663,"o":"m 371 682 q 582 585 503 682 q 663 326 663 486 q 581 76 663 171 q 364 -18 500 -18 q 144 78 226 -18 q 63 332 63 172 q 147 586 63 490 q 371 682 232 682 m 368 658 q 167 569 243 658 q 89 338 89 481 q 163 94 89 185 q 364 6 238 6 q 563 93 488 6 q 636 326 636 181 q 563 567 636 475 q 368 658 489 658 m 485 793 l 458 793 l 458 928 l 485 928 l 485 793 m 267 793 l 240 793 l 240 928 l 267 928 l 267 793 z "},"õ":{"ha":726,"x_min":63,"x_max":663,"o":"m 371 682 q 582 585 503 682 q 663 326 663 486 q 581 76 663 171 q 364 -18 500 -18 q 144 78 226 -18 q 63 332 63 172 q 147 586 63 490 q 371 682 232 682 m 368 658 q 167 569 243 658 q 89 338 89 481 q 163 94 89 185 q 364 6 238 6 q 563 93 488 6 q 636 326 636 181 q 563 567 636 475 q 368 658 489 658 m 524 904 q 442 806 504 806 q 364 842 408 806 q 286 885 311 885 q 226 807 239 885 l 200 807 q 286 910 218 910 q 368 869 317 910 q 439 831 415 831 q 499 904 481 831 l 524 904 z "},"ú":{"ha":715,"x_min":101,"x_max":608,"o":"m 608 0 l 582 0 l 582 160 q 343 -18 506 -18 q 101 240 101 -18 l 101 664 l 128 664 l 128 268 q 154 108 128 161 q 343 4 208 4 q 515 83 449 4 q 582 288 582 163 l 582 664 l 608 664 l 608 0 m 328 764 l 299 764 l 472 946 l 507 946 l 328 764 z "},"ù":{"ha":715,"x_min":101,"x_max":608,"o":"m 608 0 l 582 0 l 582 160 q 343 -18 506 -18 q 101 240 101 -18 l 101 664 l 128 664 l 128 268 q 154 108 128 161 q 343 4 208 4 q 515 83 449 4 q 582 288 582 163 l 582 664 l 608 664 l 608 0 m 425 764 l 393 764 l 214 946 l 249 946 l 425 764 z "},"û":{"ha":715,"x_min":101,"x_max":608,"o":"m 608 0 l 582 0 l 582 160 q 343 -18 506 -18 q 101 240 101 -18 l 101 664 l 128 664 l 128 268 q 154 108 128 161 q 343 4 208 4 q 515 83 449 4 q 582 288 582 163 l 582 664 l 608 664 l 608 0 m 483 764 l 353 925 l 226 764 l 192 764 l 339 946 l 372 946 l 519 764 l 483 764 z "},"ü":{"ha":715,"x_min":101,"x_max":608,"o":"m 608 0 l 582 0 l 582 160 q 343 -18 506 -18 q 101 240 101 -18 l 101 664 l 128 664 l 128 268 q 154 108 128 161 q 343 4 208 4 q 515 83 449 4 q 582 288 582 163 l 582 664 l 608 664 l 608 0 m 476 793 l 450 793 l 450 928 l 476 928 l 476 793 m 258 793 l 232 793 l 232 928 l 258 928 l 258 793 z "},"Á":{"ha":814,"x_min":18,"x_max":794,"o":"m 794 0 l 765 0 l 643 306 l 172 306 l 47 0 l 18 0 l 399 926 l 424 926 l 794 0 m 417 879 l 411 897 l 182 331 l 633 331 l 417 879 m 393 1004 l 357 1004 l 546 1168 l 585 1168 l 393 1004 z "},"À":{"ha":814,"x_min":18,"x_max":794,"o":"m 794 0 l 765 0 l 643 306 l 172 306 l 47 0 l 18 0 l 399 926 l 424 926 l 794 0 m 417 879 l 411 897 l 182 331 l 633 331 l 417 879 m 267 1168 l 456 1004 l 421 1004 l 228 1168 l 267 1168 z "},"Ã":{"ha":814,"x_min":18,"x_max":794,"o":"m 794 0 l 765 0 l 643 306 l 172 306 l 47 0 l 18 0 l 399 926 l 424 926 l 794 0 m 417 879 l 411 897 l 182 331 l 633 331 l 417 879 m 596 1132 q 506 1033 572 1033 q 422 1069 471 1033 q 339 1113 365 1113 q 271 1033 286 1113 l 246 1033 q 338 1138 264 1138 q 426 1097 374 1138 q 506 1058 476 1058 q 569 1132 550 1058 l 596 1132 z "},"Ë":{"ha":793,"x_min":115,"x_max":738,"o":"m 732 901 l 142 901 l 142 496 l 697 496 l 697 471 l 142 471 l 142 25 l 738 25 l 738 0 l 115 0 l 115 926 l 732 926 l 732 901 m 567 1025 l 540 1025 l 540 1146 l 567 1146 l 567 1025 m 307 1025 l 281 1025 l 281 1146 l 307 1146 l 307 1025 z "},"È":{"ha":793,"x_min":115,"x_max":738,"o":"m 732 901 l 142 901 l 142 496 l 697 496 l 697 471 l 142 471 l 142 25 l 738 25 l 738 0 l 115 0 l 115 926 l 732 926 l 732 901 m 331 1168 l 519 1004 l 485 1004 l 292 1168 l 331 1168 z "},"Í":{"ha":258,"x_min":90,"x_max":275,"o":"m 142 0 l 115 0 l 115 926 l 142 926 l 142 0 m 119 1004 l 90 1004 l 239 1168 l 275 1168 l 119 1004 z "},"Î":{"ha":258,"x_min":-26,"x_max":283,"o":"m 142 0 l 115 0 l 115 926 l 142 926 l 142 0 m 250 1004 l 128 1151 l 6 1004 l -26 1004 l 111 1172 l 146 1172 l 283 1004 l 250 1004 z "},"ÿ":{"ha":581,"x_min":10,"x_max":571,"o":"m 275 -110 q 218 -200 249 -175 q 171 -221 196 -215 l 157 -224 l 86 -228 l 86 -204 l 96 -204 q 210 -175 181 -204 q 250 -104 228 -157 l 276 -39 q 290 6 293 1 l 10 664 l 39 664 l 285 83 q 296 56 286 82 l 304 33 q 324 89 315 69 l 544 664 l 571 664 l 275 -110 m 413 793 l 386 793 l 386 928 l 413 928 l 413 793 m 194 793 l 168 793 l 168 928 l 194 928 l 194 793 z "},"Ÿ":{"ha":782,"x_min":0,"x_max":782,"o":"m 403 390 l 403 0 l 376 0 l 376 390 l 0 926 l 31 926 l 390 415 l 753 926 l 782 926 l 403 390 m 535 1025 l 508 1025 l 508 1146 l 535 1146 l 535 1025 m 275 1025 l 249 1025 l 249 1146 l 275 1146 l 275 1025 z "},"Ò":{"ha":1003,"x_min":69,"x_max":935,"o":"m 501 947 q 814 810 692 947 q 935 454 935 671 q 814 111 935 244 q 501 -21 693 -21 q 189 113 308 -21 q 69 463 69 246 q 190 813 69 678 q 501 947 310 947 m 503 922 q 210 794 324 922 q 96 465 96 667 q 208 132 96 260 q 501 4 321 4 q 794 131 682 4 q 908 456 908 256 q 794 792 908 661 q 503 922 681 922 m 399 1168 l 588 1004 l 553 1004 l 360 1168 l 399 1168 z "},"Õ":{"ha":1003,"x_min":69,"x_max":935,"o":"m 501 947 q 814 810 692 947 q 935 454 935 671 q 814 111 935 244 q 501 -21 693 -21 q 189 113 308 -21 q 69 463 69 246 q 190 813 69 678 q 501 947 310 947 m 503 922 q 210 794 324 922 q 96 465 96 667 q 208 132 96 260 q 501 4 321 4 q 794 131 682 4 q 908 456 908 256 q 794 792 908 661 q 503 922 681 922 m 686 1132 q 597 1033 664 1033 q 513 1069 563 1033 q 429 1113 456 1113 q 363 1033 375 1113 l 336 1033 q 429 1138 354 1138 q 517 1097 464 1138 q 597 1058 567 1058 q 660 1132 640 1058 l 686 1132 z "},"Š":{"ha":797,"x_min":42,"x_max":733,"o":"m 688 665 q 626 835 679 778 q 374 921 547 921 q 94 710 94 921 q 203 542 94 590 q 308 507 240 525 l 424 481 q 567 443 525 457 q 639 414 608 431 q 733 233 733 361 q 390 -19 733 -19 q 135 64 228 -19 q 42 292 42 147 l 42 307 l 68 307 q 132 103 68 179 q 388 6 214 6 q 707 235 707 6 q 629 392 707 344 q 561 421 599 410 q 408 460 524 433 q 240 503 292 486 q 156 540 193 518 q 68 711 68 593 q 150 883 68 819 q 374 946 232 946 q 714 665 699 946 l 688 665 m 236 1172 l 388 1028 l 539 1172 l 575 1172 l 404 1004 l 371 1004 l 200 1172 l 236 1172 z "},"Ž":{"ha":767,"x_min":42,"x_max":729,"o":"m 719 893 l 96 64 l 67 25 l 729 25 l 729 0 l 42 0 l 42 35 l 667 865 q 694 901 690 897 l 78 901 l 78 926 l 719 926 l 719 893 m 247 1172 l 397 1028 l 549 1172 l 585 1172 l 415 1004 l 381 1004 l 211 1172 l 247 1172 z "},"š":{"ha":603,"x_min":38,"x_max":547,"o":"m 503 471 q 475 576 499 538 q 290 658 425 658 q 88 510 88 658 q 163 397 88 433 q 308 356 201 382 q 463 307 424 328 q 547 171 547 265 q 478 33 547 85 q 292 -18 407 -18 q 69 90 136 -18 q 38 229 39 140 l 64 229 q 97 96 68 139 q 294 6 154 6 q 521 171 521 6 q 435 292 521 250 q 303 331 396 310 q 132 385 174 361 q 61 508 61 425 q 292 682 61 682 q 483 611 421 682 q 531 471 525 563 l 503 471 m 167 946 l 296 785 l 424 946 l 458 946 l 311 764 l 278 764 l 131 946 l 167 946 z "},"ž":{"ha":568,"x_min":28,"x_max":549,"o":"m 528 633 l 85 65 l 63 38 q 53 25 58 31 l 549 25 l 549 0 l 28 0 l 28 33 l 501 639 l 65 639 l 65 664 l 528 664 l 528 633 m 168 946 l 297 785 l 425 946 l 460 946 l 313 764 l 279 764 l 132 946 l 168 946 z "},"Â":{"ha":814,"x_min":18,"x_max":794,"o":"m 794 0 l 765 0 l 643 306 l 172 306 l 47 0 l 18 0 l 399 926 l 424 926 l 794 0 m 417 879 l 411 897 l 182 331 l 633 331 l 417 879 m 563 1004 l 411 1149 l 260 1004 l 224 1004 l 394 1172 l 428 1172 l 599 1004 l 563 1004 z "},"Ê":{"ha":793,"x_min":115,"x_max":738,"o":"m 732 901 l 142 901 l 142 496 l 697 496 l 697 471 l 142 471 l 142 25 l 738 25 l 738 0 l 115 0 l 115 926 l 732 926 l 732 901 m 578 1004 l 426 1149 l 275 1004 l 239 1004 l 410 1172 l 443 1172 l 614 1004 l 578 1004 z "},"Ï":{"ha":258,"x_min":35,"x_max":224,"o":"m 142 0 l 115 0 l 115 926 l 142 926 l 142 0 m 224 1025 l 197 1025 l 197 1146 l 224 1146 l 224 1025 m 61 1025 l 35 1025 l 35 1146 l 61 1146 l 61 1025 z "},"Ì":{"ha":258,"x_min":-15,"x_max":169,"o":"m 142 0 l 115 0 l 115 926 l 142 926 l 142 0 m 21 1168 l 169 1004 l 140 1004 l -15 1168 l 21 1168 z "},"Ó":{"ha":1003,"x_min":69,"x_max":935,"o":"m 501 947 q 814 810 692 947 q 935 454 935 671 q 814 111 935 244 q 501 -21 693 -21 q 189 113 308 -21 q 69 463 69 246 q 190 813 69 678 q 501 947 310 947 m 503 922 q 210 794 324 922 q 96 465 96 667 q 208 132 96 260 q 501 4 321 4 q 794 131 682 4 q 908 456 908 256 q 794 792 908 661 q 503 922 681 922 m 474 1004 l 439 1004 l 628 1168 l 667 1168 l 474 1004 z "},"Ô":{"ha":1003,"x_min":69,"x_max":935,"o":"m 501 947 q 814 810 692 947 q 935 454 935 671 q 814 111 935 244 q 501 -21 693 -21 q 189 113 308 -21 q 69 463 69 246 q 190 813 69 678 q 501 947 310 947 m 503 922 q 210 794 324 922 q 96 465 96 667 q 208 132 96 260 q 501 4 321 4 q 794 131 682 4 q 908 456 908 256 q 794 792 908 661 q 503 922 681 922 m 653 1004 l 501 1149 l 351 1004 l 315 1004 l 485 1172 l 519 1172 l 689 1004 l 653 1004 z "},"Ú":{"ha":893,"x_min":101,"x_max":790,"o":"m 790 347 q 449 -19 790 -19 q 142 144 228 -19 q 101 350 101 219 l 101 926 l 128 926 l 128 349 q 190 117 128 199 q 453 6 275 6 q 764 350 764 6 l 764 926 l 790 926 l 790 347 m 418 1004 l 383 1004 l 572 1168 l 611 1168 l 418 1004 z "},"Û":{"ha":893,"x_min":101,"x_max":790,"o":"m 790 347 q 449 -19 790 -19 q 142 144 228 -19 q 101 350 101 219 l 101 926 l 128 926 l 128 349 q 190 117 128 199 q 453 6 275 6 q 764 350 764 6 l 764 926 l 790 926 l 790 347 m 597 1004 l 446 1149 l 294 1004 l 258 1004 l 429 1172 l 463 1172 l 633 1004 l 597 1004 z "},"Ù":{"ha":893,"x_min":101,"x_max":790,"o":"m 790 347 q 449 -19 790 -19 q 142 144 228 -19 q 101 350 101 219 l 101 926 l 128 926 l 128 349 q 190 117 128 199 q 453 6 275 6 q 764 350 764 6 l 764 926 l 790 926 l 790 347 m 325 1168 l 514 1004 l 478 1004 l 286 1168 l 325 1168 z "},"Ç":{"ha":949,"x_min":69,"x_max":893,"o":"m 893 364 q 825 160 885 250 q 629 3 751 46 q 489 -19 574 -17 l 447 -85 q 500 -79 482 -79 q 589 -156 589 -79 q 464 -251 589 -251 q 349 -225 415 -251 l 358 -201 q 465 -226 422 -226 q 563 -160 563 -226 q 488 -103 563 -103 q 421 -118 461 -103 l 400 -104 l 458 -19 q 175 126 282 -3 q 69 456 69 257 q 188 810 69 672 q 492 947 306 947 q 792 821 681 947 q 876 647 851 754 l 850 647 q 492 922 788 922 q 188 771 303 922 q 96 456 96 649 q 185 160 96 275 q 488 6 300 6 q 781 143 671 6 q 867 364 861 242 l 893 364 z "},"ç":{"ha":688,"x_min":63,"x_max":633,"o":"m 633 229 q 353 -18 600 -19 l 311 -82 q 363 -76 344 -76 q 454 -153 454 -76 q 328 -249 454 -249 q 214 -222 281 -249 l 224 -199 q 328 -225 282 -225 q 426 -158 426 -225 q 353 -100 426 -100 q 283 -117 324 -100 l 265 -101 l 324 -18 q 131 92 197 0 q 63 325 63 188 q 146 586 63 490 q 369 682 228 682 q 625 465 596 682 l 600 465 q 556 576 588 536 q 367 658 489 658 q 164 569 239 658 q 89 331 89 481 q 163 94 89 185 q 353 4 235 4 q 607 229 581 4 l 633 229 z "},"∞":{"ha":990,"x_min":35,"x_max":957,"o":"m 496 421 q 758 575 613 575 q 901 518 844 575 q 957 372 957 461 q 903 218 957 276 q 761 160 850 160 q 565 246 668 160 q 496 315 526 276 q 454 267 463 275 q 235 160 358 160 q 90 217 144 160 q 35 367 35 274 q 92 515 35 457 q 236 575 149 575 q 496 421 372 575 m 582 326 q 611 297 597 310 q 764 232 683 232 q 888 369 888 232 q 756 503 888 503 q 613 442 685 503 q 551 378 578 415 q 543 367 543 368 l 582 326 m 450 369 q 233 503 328 503 q 104 367 104 503 q 226 232 104 232 q 413 326 317 232 q 443 360 426 340 l 450 369 z "},"µ":{"ha":800,"x_min":46,"x_max":788,"o":"m 614 182 q 682 57 614 57 q 750 151 743 57 l 788 150 q 621 -18 757 -18 q 524 29 557 -18 q 492 111 504 56 q 276 -18 382 -18 q 140 46 217 -18 q 157 -74 140 -15 q 183 -201 183 -164 q 114 -304 183 -304 q 46 -208 46 -304 q 53 -144 46 -174 l 69 -78 q 86 28 86 -15 l 86 694 l 208 694 l 208 235 q 335 81 208 81 q 490 182 421 81 l 490 694 l 614 694 l 614 182 z "},"":{"ha":1097,"x_min":78,"x_max":1018,"o":"m 792 954 q 682 769 792 843 q 540 726 615 726 q 608 890 542 826 q 792 969 676 957 l 792 954 m 992 640 q 879 444 879 554 q 1018 236 879 296 q 900 54 961 121 q 739 -37 814 -37 q 653 -14 707 -37 q 561 3 617 3 q 483 -14 518 3 q 390 -37 426 -37 q 213 75 303 -37 q 78 433 78 250 q 163 651 78 563 q 371 740 247 740 q 490 713 414 740 q 561 696 539 696 q 618 710 582 696 q 746 740 700 740 q 992 640 901 740 z "},"Ð":{"ha":904,"x_min":4,"x_max":833,"o":"m 115 926 l 418 926 q 704 828 600 926 q 833 472 833 706 q 704 106 833 238 q 413 0 597 0 l 115 0 l 115 471 l 4 471 l 4 496 l 115 496 l 115 926 m 439 496 l 439 471 l 142 471 l 142 25 l 396 25 q 683 121 586 25 q 807 472 807 240 q 692 804 807 689 q 411 901 594 901 l 142 901 l 142 496 l 439 496 z "},"ð":{"ha":726,"x_min":63,"x_max":663,"o":"m 403 826 l 342 924 l 365 938 l 428 840 l 547 897 l 558 876 l 442 818 l 526 679 l 596 572 l 608 549 q 663 333 663 450 q 583 76 663 169 q 365 -18 504 -18 q 144 78 225 -18 q 63 336 63 172 q 147 586 63 490 q 368 682 232 682 q 515 643 439 682 l 415 806 l 308 753 l 296 774 l 403 826 m 368 658 q 167 569 243 658 q 89 338 89 481 q 163 94 89 185 q 364 6 238 6 q 563 93 488 6 q 636 326 636 181 q 563 567 636 475 q 368 658 489 658 z "},"Þ":{"ha":825,"x_min":115,"x_max":772,"o":"m 142 0 l 115 0 l 115 926 l 142 926 l 142 778 l 476 778 q 668 736 606 778 q 772 525 772 669 q 697 343 772 411 q 496 275 621 275 l 142 275 l 142 0 m 142 300 l 456 300 q 632 329 575 300 q 746 525 746 390 q 657 713 746 653 q 475 753 601 753 l 142 753 l 142 300 z "},"þ":{"ha":753,"x_min":107,"x_max":690,"o":"m 133 926 l 133 483 q 200 600 161 558 q 394 682 278 682 q 611 586 531 682 q 690 324 690 489 q 613 74 690 165 q 401 -18 535 -18 q 133 190 189 -18 l 133 -232 l 107 -232 l 107 926 l 133 926 m 400 658 q 207 571 278 658 q 135 332 135 482 q 207 94 135 182 q 403 6 279 6 q 664 326 664 6 q 593 568 664 478 q 400 658 521 658 z "},"Ý":{"ha":782,"x_min":0,"x_max":782,"o":"m 403 390 l 403 0 l 376 0 l 376 390 l 0 926 l 31 926 l 390 415 l 753 926 l 782 926 l 403 390 m 368 1004 l 333 1004 l 522 1168 l 560 1168 l 368 1004 z "},"ý":{"ha":581,"x_min":10,"x_max":571,"o":"m 275 -110 q 218 -200 249 -175 q 171 -221 196 -215 l 157 -224 l 86 -228 l 86 -204 l 96 -204 q 210 -175 181 -204 q 250 -104 228 -157 l 276 -39 q 290 6 293 1 l 10 664 l 39 664 l 285 83 q 296 56 286 82 l 304 33 q 324 89 315 69 l 544 664 l 571 664 l 275 -110 m 276 764 l 247 764 l 421 946 l 456 946 l 276 764 z "},"™":{"ha":1081,"x_min":18,"x_max":979,"o":"m 419 900 l 232 900 l 232 399 l 206 399 l 206 900 l 18 900 l 18 926 l 419 926 l 419 900 m 979 399 l 953 399 l 953 874 l 742 399 l 717 399 l 506 874 l 506 399 l 479 399 l 479 926 l 510 926 l 731 433 l 950 926 l 979 926 l 979 399 z "},"©":{"ha":1107,"x_min":69,"x_max":1038,"o":"m 808 410 q 729 239 800 304 q 551 174 658 174 q 361 254 436 174 q 288 458 288 333 q 361 672 288 590 q 553 754 435 754 q 797 567 772 754 l 774 567 l 771 579 q 553 729 740 729 q 379 654 446 729 q 314 458 314 581 q 381 271 314 344 q 553 199 447 199 q 785 410 758 199 l 808 410 m 561 947 q 897 804 756 947 q 1038 463 1038 661 q 896 121 1038 263 q 554 -21 754 -21 q 211 121 353 -21 q 69 463 69 263 q 213 807 69 665 q 561 947 356 947 m 561 921 q 203 757 342 921 q 96 463 96 631 q 229 139 96 272 q 554 6 364 6 q 876 140 743 6 q 1011 463 1011 274 q 847 814 1011 674 q 561 921 719 921 z "},"®":{"ha":1107,"x_min":69,"x_max":1038,"o":"m 579 740 q 769 592 769 740 q 663 456 769 486 q 735 414 711 446 q 763 279 758 385 l 765 222 q 771 199 768 207 l 778 185 l 750 185 q 740 213 743 196 l 736 283 q 699 414 733 389 q 561 442 661 442 l 374 442 l 374 185 l 347 185 l 347 740 l 579 740 m 374 467 l 558 467 q 744 594 744 467 q 574 715 744 715 l 374 715 l 374 467 m 561 947 q 897 804 756 947 q 1038 463 1038 661 q 896 121 1038 263 q 554 -21 754 -21 q 211 121 353 -21 q 69 463 69 263 q 213 807 69 665 q 561 947 356 947 m 561 921 q 203 757 342 921 q 96 463 96 631 q 229 139 96 272 q 554 6 364 6 q 876 140 743 6 q 1011 463 1011 274 q 847 814 1011 674 q 561 921 719 921 z "},"¼":{"ha":1210,"x_min":122,"x_max":1150,"o":"m 296 371 l 269 371 l 269 865 q 122 778 211 797 l 122 803 q 265 896 194 824 l 271 901 l 296 901 l 296 371 m 329 0 l 300 0 l 879 901 l 908 901 l 329 0 m 1150 136 l 1053 136 l 1053 0 l 1026 0 l 1026 136 l 754 136 l 754 161 l 1024 531 l 1053 531 l 1053 161 l 1150 161 l 1150 136 m 1026 494 l 785 161 l 1026 161 l 1026 494 z "},"½":{"ha":1210,"x_min":122,"x_max":1147,"o":"m 296 371 l 269 371 l 269 865 q 122 778 211 797 l 122 803 q 265 896 194 824 l 271 901 l 296 901 l 296 371 m 329 0 l 300 0 l 879 901 l 908 901 l 329 0 m 1147 0 l 772 0 q 826 115 781 69 q 888 163 843 129 l 963 214 q 1106 400 1106 311 q 960 517 1106 517 q 810 349 811 517 l 783 349 q 825 489 785 443 q 960 542 874 542 q 1132 400 1132 542 q 1074 271 1132 329 q 993 204 1049 246 l 929 160 q 803 25 811 81 l 1147 25 l 1147 0 z "},"¾":{"ha":1210,"x_min":61,"x_max":1151,"o":"m 75 729 q 264 914 83 914 q 439 776 439 914 q 340 654 439 683 q 449 518 449 626 q 396 403 449 449 q 260 358 342 358 q 61 538 61 358 l 61 557 l 86 557 l 86 539 q 257 383 86 383 q 422 518 422 383 q 371 617 422 586 q 240 643 335 639 l 229 643 l 229 668 l 242 668 q 356 685 322 668 q 413 778 413 715 q 264 889 413 889 q 100 729 104 889 l 75 729 m 329 0 l 301 0 l 881 901 l 910 901 l 329 0 m 1151 136 l 1054 136 l 1054 0 l 1028 0 l 1028 136 l 756 136 l 756 161 l 1025 531 l 1054 531 l 1054 161 l 1151 161 l 1151 136 m 1028 494 l 786 161 l 1028 161 l 1028 494 z "},"−":{"ha":796,"x_min":88,"x_max":708,"o":"m 708 456 l 708 429 l 88 429 l 88 456 l 708 456 z "},"×":{"ha":796,"x_min":144,"x_max":653,"o":"m 399 461 l 635 697 l 653 676 l 418 442 l 651 208 l 632 189 l 399 424 l 164 188 l 144 207 l 379 442 l 146 675 l 165 694 l 399 461 z "},"±":{"ha":763,"x_min":14,"x_max":749,"o":"m 419 579 l 749 579 l 749 503 l 419 503 l 419 179 l 343 179 l 343 503 l 14 503 l 14 579 l 343 579 l 343 919 l 419 919 l 419 579 m 743 76 l 743 0 l 15 0 l 15 76 l 743 76 z "},"÷":{"ha":763,"x_min":14,"x_max":744,"o":"m 379 167 q 465 81 465 167 q 379 -6 465 -6 q 293 81 293 -6 q 379 167 293 167 m 379 721 q 465 635 465 721 q 379 549 465 549 q 293 635 293 549 q 379 721 293 721 m 744 400 l 744 324 l 14 324 l 14 400 l 744 400 z "},"¬":{"ha":694,"x_min":46,"x_max":647,"o":"m 621 346 l 46 346 l 46 371 l 647 371 l 647 0 l 621 0 l 621 346 z "},"°":{"ha":556,"x_min":69,"x_max":486,"o":"m 279 953 q 426 893 368 953 q 486 742 486 832 q 426 590 486 653 q 278 529 365 529 q 131 590 190 529 q 69 743 69 653 q 131 892 69 829 q 279 953 193 953 m 276 874 q 185 835 222 874 q 147 738 147 794 q 186 647 147 686 q 274 608 224 608 q 407 739 407 608 q 276 874 407 874 z "},"¦":{"ha":694,"x_min":333,"x_max":360,"o":"m 360 926 l 360 482 l 333 482 l 333 926 l 360 926 m 360 213 l 360 -232 l 333 -232 l 333 213 l 360 213 z "},"¹":{"ha":508,"x_min":122,"x_max":296,"o":"m 296 371 l 269 371 l 269 865 q 122 778 211 797 l 122 803 q 265 896 194 824 l 271 901 l 296 901 l 296 371 z "},"²":{"ha":508,"x_min":72,"x_max":447,"o":"m 447 369 l 72 369 q 126 485 79 438 q 188 533 150 507 l 206 546 q 224 558 213 551 q 240 569 231 564 l 263 585 q 406 772 406 682 q 260 889 406 889 q 110 719 111 889 l 83 719 q 125 861 85 814 q 260 914 174 914 q 432 771 432 914 q 374 642 432 701 q 293 575 349 617 l 229 531 q 103 394 111 451 l 447 394 l 447 369 z "},"³":{"ha":508,"x_min":61,"x_max":449,"o":"m 75 729 q 264 914 83 914 q 439 776 439 914 q 340 654 439 683 q 449 518 449 626 q 396 403 449 449 q 260 358 342 358 q 61 538 61 358 l 61 557 l 86 557 l 86 539 q 257 383 86 383 q 422 518 422 383 q 371 617 422 586 q 240 643 335 639 l 229 643 l 229 668 l 242 668 q 356 685 322 668 q 413 778 413 715 q 264 889 413 889 q 100 729 104 889 l 75 729 z "},"≠":{"ha":763,"x_min":21,"x_max":750,"o":"m 21 196 l 21 272 l 297 272 l 394 465 l 21 465 l 21 542 l 433 542 l 544 763 l 610 729 l 515 542 l 750 542 l 750 465 l 476 465 l 379 272 l 750 272 l 750 196 l 340 196 l 224 -35 l 160 -1 l 260 196 l 21 196 z "},"≤":{"ha":763,"x_min":40,"x_max":731,"o":"m 731 0 l 40 0 l 40 76 l 731 76 l 731 0 m 731 801 l 150 525 l 731 249 l 731 163 l 40 486 l 40 563 l 731 888 l 731 801 z "},"≥":{"ha":763,"x_min":40,"x_max":731,"o":"m 731 0 l 40 0 l 40 76 l 731 76 l 731 0 m 731 563 l 731 486 l 40 163 l 40 249 l 621 525 l 40 801 l 40 888 l 731 563 z "},"∂":{"ha":686,"x_min":36,"x_max":642,"o":"m 92 1007 q 271 1046 196 1046 q 500 946 401 1046 q 642 558 642 803 q 601 278 642 419 q 297 -14 521 -14 q 111 65 186 -14 q 36 261 36 143 q 132 493 36 393 q 304 572 207 572 q 517 481 400 572 q 526 626 526 561 q 446 918 526 826 q 301 981 394 981 q 149 936 238 981 l 92 1007 m 508 433 q 363 510 432 510 q 218 425 278 510 q 157 221 157 339 q 282 29 157 29 q 436 149 376 29 q 485 294 471 219 q 503 393 496 349 q 508 433 510 431 z "},"∑":{"ha":990,"x_min":19,"x_max":965,"o":"m 506 474 l 226 -15 l 682 -15 q 850 11 803 -15 q 929 121 896 36 l 965 121 l 890 -171 l 19 -171 l 356 396 l 32 1044 l 864 1044 l 878 815 l 842 815 q 781 954 824 921 q 617 988 736 988 l 244 988 l 506 474 z "},"∏":{"ha":1143,"x_min":35,"x_max":1115,"o":"m 35 -136 l 39 -136 q 142 -93 110 -136 q 161 25 161 -62 l 161 846 q 142 964 161 933 q 39 1007 110 1007 l 35 1007 l 35 1043 l 1115 1043 l 1115 1007 l 1111 1007 q 1008 964 1040 1007 q 989 846 989 933 l 989 25 q 1008 -93 989 -62 q 1111 -136 1040 -136 l 1115 -136 l 1115 -172 l 713 -172 l 713 -136 l 717 -136 q 819 -93 788 -136 q 839 25 839 -62 l 839 825 q 814 958 839 935 q 732 982 792 978 q 665 983 719 983 l 432 983 q 379 978 403 982 q 324 942 336 971 q 311 825 311 913 l 311 25 q 331 -93 311 -62 q 433 -136 363 -136 l 438 -136 l 438 -172 l 35 -172 l 35 -136 z "},"π":{"ha":763,"x_min":14,"x_max":736,"o":"m 14 483 q 99 646 44 592 q 240 694 149 694 l 726 694 l 726 571 l 551 571 l 546 525 l 543 478 q 535 264 535 361 q 551 167 535 201 q 624 118 576 118 q 703 219 692 118 l 736 219 q 704 79 731 128 q 571 -18 653 -18 q 433 238 433 -18 q 463 571 433 379 l 311 571 l 294 392 q 282 282 290 347 q 271 189 276 228 l 263 128 q 154 -18 242 -18 q 79 60 79 -18 q 135 150 79 99 q 206 263 200 211 l 242 571 l 178 571 q 42 483 99 571 l 14 483 z "},"∫":{"ha":381,"x_min":3,"x_max":404,"o":"m 250 322 q 235 60 250 186 q 88 -149 211 -149 q 3 -87 3 -149 q 53 -42 3 -42 q 94 -72 78 -42 q 124 -97 106 -97 q 167 -14 167 -97 q 163 88 167 29 q 157 322 157 203 l 157 801 q 172 1064 157 938 q 319 1272 199 1272 q 404 1208 404 1272 q 354 1165 404 1165 q 299 1211 328 1165 q 281 1219 294 1219 q 240 1129 240 1219 q 244 1036 240 1094 q 250 800 250 942 l 250 322 z "},"Ω":{"ha":1067,"x_min":47,"x_max":1022,"o":"m 47 0 l 47 213 l 81 213 q 176 125 94 125 l 379 125 l 375 178 q 264 231 306 204 q 94 531 94 340 q 201 803 94 678 q 535 953 332 953 q 868 803 738 953 q 975 531 975 678 q 806 231 975 340 q 694 178 764 204 l 690 125 l 893 125 q 989 213 975 125 l 1022 213 l 1022 0 l 617 0 l 642 215 q 819 531 819 315 q 763 750 819 647 q 535 892 685 892 q 307 750 385 892 q 250 531 250 647 q 428 215 250 315 l 453 0 l 47 0 z "},"√":{"ha":763,"x_min":14,"x_max":715,"o":"m 168 640 l 36 575 l 14 624 l 217 722 l 488 175 l 664 1268 l 715 1261 l 504 -49 l 168 640 z "},"≈":{"ha":763,"x_min":19,"x_max":732,"o":"m 732 301 q 536 183 668 183 q 444 197 490 183 l 310 239 q 222 256 251 256 q 79 168 157 256 l 19 215 q 222 332 101 332 q 396 293 274 332 q 493 265 471 269 q 536 260 514 260 q 621 289 583 260 q 679 349 642 306 l 732 301 m 732 521 q 536 401 669 401 q 444 415 490 401 q 417 424 429 421 l 376 436 q 356 443 367 440 l 310 457 q 222 474 251 474 q 79 386 157 474 l 19 433 q 222 550 101 550 q 396 511 274 550 q 493 483 471 488 q 536 478 514 478 q 621 507 583 478 q 679 567 642 524 l 732 521 z "},"Δ":{"ha":850,"x_min":8,"x_max":844,"o":"m 454 956 l 844 0 l 8 0 l 454 956 m 665 71 l 403 707 l 107 71 l 665 71 z "},"◊":{"ha":686,"x_min":25,"x_max":647,"o":"m 25 524 l 297 1028 l 385 1028 l 647 519 l 374 0 l 290 0 l 25 524 m 558 519 l 340 949 l 113 524 l 333 81 l 558 519 z "}}}
